<?xml version="1.0" encoding="UTF-8"?>
<!DOCTYPE svg PUBLIC "-//W3C//DTD SVG 1.1//EN" "http://www.w3.org/Graphics/SVG/1.1/DTD/svg11.dtd">
<!-- Creator: CorelDRAW X6 -->
<svg xmlns="http://www.w3.org/2000/svg" xml:space="preserve" width="75.4106mm" height="27.5992mm" version="1.1" style="shape-rendering:geometricPrecision; text-rendering:geometricPrecision; image-rendering:optimizeQuality; fill-rule:evenodd; clip-rule:evenodd"
viewBox="0 0 7541 2760"
 xmlns:xlink="http://www.w3.org/1999/xlink">
 <defs>
  <style type="text/css">
   <![CDATA[
    .fil0 {fill:#E08A34}
    .fil1 {fill:black;fill-rule:nonzero}
   ]]>
  </style>
 </defs>
 <g id="Camada_x0020_1">
  <metadata id="CorelCorpID_0Corel-Layer"/>
  <g id="_692079472">
   <path class="fil0" d="M2754 1380c0,762 -617,1380 -1377,1380 -761,0 -1377,-618 -1377,-1380 0,-762 617,-1380 1377,-1380 761,0 1377,618 1377,1380z"/>
   <path class="fil1" d="M2038 1872c0,37 -7,104 -22,202 -15,106 -29,170 -41,191 -10,16 -25,25 -43,25 -7,0 -21,-1 -39,-4 -62,-8 -244,-13 -546,-13 -66,0 -164,0 -294,-1 -130,-1 -228,-1 -293,-1 -28,0 -43,-12 -43,-37 0,-96 5,-240 16,-432 11,-192 16,-336 16,-432 0,-98 -5,-280 -16,-545 -3,-68 -7,-171 -14,-307l-1 -18c-2,-20 9,-29 32,-29 64,0 159,1 286,5 127,4 222,5 286,5 63,0 157,-2 283,-5 126,-4 220,-5 283,-5 45,0 70,17 77,50 4,20 11,79 21,179 9,99 14,160 14,181 0,18 -9,27 -26,27 -5,0 -14,0 -27,-1 -228,-18 -433,-28 -615,-28 -45,0 -73,11 -83,32 -4,11 -7,43 -7,99 0,58 9,96 26,115 14,16 43,25 84,25 8,0 25,0 50,-2 25,-1 46,-2 62,-2 108,0 217,-3 328,-8 9,-1 33,-3 71,-7 29,-3 52,-5 70,-5 21,0 31,10 31,29 0,-18 -8,48 -24,197 -7,68 -11,137 -11,205 0,17 -12,26 -37,26 0,0 -39,-4 -116,-13 -49,-5 -160,-8 -334,-8l-136 0c-35,0 -56,9 -62,26 -1,4 -1,31 -1,80 0,65 4,107 13,126 15,32 70,52 165,58 -2,0 60,0 188,0 45,0 113,-4 202,-12 89,-8 156,-12 201,-12 19,0 28,15 28,46z"/>
   <path class="fil1" d="M4312 2121c0,84 -4,133 -11,149 -10,19 -39,28 -88,28 -8,0 -25,0 -52,0 -25,-1 -47,-1 -65,-1 -18,0 -44,-1 -78,-3 -35,-1 -60,-2 -78,-2 -14,0 -77,-81 -188,-241 -111,-161 -170,-241 -174,-242 -18,14 -79,99 -183,254 -99,148 -158,225 -175,230 -12,4 -44,5 -96,5 -175,0 -263,-9 -263,-27 0,-18 -1,-43 -4,-77 -2,-33 -3,-58 -3,-74 0,-106 7,-169 19,-188 1,-1 74,-93 220,-278 118,-149 177,-234 177,-255 0,-22 -59,-107 -177,-257 -75,-92 -149,-185 -223,-279 -8,-11 -12,-30 -14,-55 -1,-18 -1,-43 0,-73 2,-37 4,-57 4,-62 0,-17 -1,-44 -4,-80 -3,-36 -4,-62 -4,-79 0,-16 15,-25 45,-25 20,0 49,1 88,4 38,3 67,4 86,4 17,0 42,-1 76,-3 33,-2 58,-3 75,-3 14,0 77,81 188,244 112,163 171,244 176,244 17,-10 80,-96 187,-256 103,-155 162,-232 177,-232l307 0c30,0 45,7 45,22l0 314c0,22 -69,118 -206,288 -138,170 -206,260 -206,270 0,15 60,99 182,255 142,182 216,277 223,286 12,19 18,84 18,195zm1739 -943c0,207 -54,375 -163,503 -117,136 -277,204 -482,204 -35,0 -86,-2 -155,-5 -69,-4 -121,-5 -155,-5 -37,0 -55,16 -55,47 0,39 4,98 12,176 8,78 12,136 12,174 0,20 -9,30 -27,30 -53,0 -131,-2 -235,-5 -104,-3 -183,-4 -235,-4 -25,0 -37,-12 -37,-37 0,-95 1,-237 4,-428 3,-190 4,-333 4,-428 0,-269 -12,-551 -35,-847l-1 -18c-2,-16 11,-26 39,-30 67,-8 214,-13 442,-13 135,0 263,2 387,5 203,6 366,70 491,191 127,125 190,288 190,490zm-513 21c0,-200 -97,-300 -291,-300 -137,0 -209,8 -216,23 -6,11 -9,110 -9,297 0,27 1,66 3,118 2,52 4,91 4,117 0,17 77,26 230,26 185,0 278,-94 278,-281zm2003 695c0,37 -7,104 -22,202 -15,106 -29,170 -41,191 -10,16 -25,25 -43,25 -7,0 -21,-1 -39,-4 -62,-8 -244,-13 -546,-13 -66,0 -164,0 -294,-1 -130,-1 -228,-1 -293,-1 -28,0 -43,-12 -43,-37 0,-96 5,-240 16,-432 11,-192 16,-336 16,-432 0,-98 -5,-280 -16,-545 -3,-68 -7,-171 -14,-307l-1 -18c-2,-20 9,-29 32,-29 64,0 159,1 286,5 127,4 222,5 286,5 63,0 157,-2 283,-5 126,-4 220,-5 283,-5 45,0 70,17 77,50 4,20 11,79 21,179 9,99 14,160 14,181 0,18 -9,27 -26,27 -5,0 -14,0 -27,-1 -228,-18 -433,-28 -615,-28 -45,0 -73,11 -83,32 -4,11 -7,43 -7,99 0,58 9,96 26,115 14,16 43,25 84,25 8,0 25,0 50,-2 25,-1 46,-2 62,-2 108,0 217,-3 328,-8 9,-1 33,-3 71,-7 29,-3 52,-5 70,-5 21,0 31,10 31,29 0,-18 -8,48 -24,197 -7,68 -11,137 -11,205 0,17 -12,26 -37,26 0,0 -39,-4 -116,-13 -49,-5 -160,-8 -334,-8l-136 0c-35,0 -56,9 -62,26 -1,4 -1,31 -1,80 0,65 4,107 13,126 15,32 70,52 165,58 -2,0 60,0 188,0 45,0 113,-4 202,-12 89,-8 156,-12 201,-12 19,0 28,15 28,46z"/>
  </g>
 </g>
</svg>
