<?xml version="1.0" encoding="UTF-8"?>
<!DOCTYPE svg PUBLIC "-//W3C//DTD SVG 1.1//EN" "http://www.w3.org/Graphics/SVG/1.1/DTD/svg11.dtd">
<!-- Creator: CorelDRAW X6 -->
<svg xmlns="http://www.w3.org/2000/svg" xml:space="preserve" width="118.127mm" height="129.553mm" version="1.1" style="shape-rendering:geometricPrecision; text-rendering:geometricPrecision; image-rendering:optimizeQuality; fill-rule:evenodd; clip-rule:evenodd"
viewBox="0 0 11813 12955"
 xmlns:xlink="http://www.w3.org/1999/xlink">
 <defs>
  <style type="text/css">
   <![CDATA[
    .fil3 {fill:none}
    .fil2 {fill:#BCBDBF}
    .fil0 {fill:#D1D2D4}
    .fil1 {fill:#FEFEFE}
    .fil16 {fill:#48768A}
    .fil15 {fill:#7BC9EB}
    .fil13 {fill:#8C295E}
    .fil11 {fill:#93A34D}
    .fil10 {fill:#B8CC46}
    .fil12 {fill:#C21373}
    .fil8 {fill:#E08A34}
    .fil14 {fill:#E89F56}
    .fil9 {fill:#EDC93B}
    .fil5 {fill:#FEFEFE}
    .fil7 {fill:#BCBDBF;fill-rule:nonzero}
    .fil4 {fill:#FEFEFE;fill-rule:nonzero}
    .fil17 {fill:black;fill-rule:nonzero}
    .fil6 {fill:#FEFEFE;fill-rule:nonzero}
   ]]>
  </style>
     <clipPath id="id0">
      <path d="M2498 4408c0,245 -198,443 -442,443 -244,0 -442,-198 -442,-443 0,-245 198,-443 442,-443 244,0 442,198 442,443z"/>
     </clipPath>
     <clipPath id="id1">
      <path d="M3221 3855c0,334 -270,605 -603,605 -333,0 -603,-271 -603,-605 0,-334 270,-605 603,-605 333,0 603,271 603,605z"/>
     </clipPath>
     <clipPath id="id2">
      <path d="M4646 3752c0,504 -407,912 -910,912 -503,0 -910,-408 -910,-912 0,-504 407,-912 910,-912 503,0 910,408 910,912z"/>
     </clipPath>
     <clipPath id="id3">
      <path d="M5496 4049c0,375 -303,679 -677,679 -374,0 -677,-304 -677,-679 0,-375 303,-679 677,-679 374,0 677,304 677,679z"/>
     </clipPath>
     <clipPath id="id4">
      <path d="M5956 4911c0,416 -336,752 -751,752 -415,0 -751,-337 -751,-752 0,-416 336,-752 751,-752 415,0 751,337 751,752z"/>
     </clipPath>
     <clipPath id="id5">
      <path d="M5375 5998c0,341 -276,618 -617,618 -341,0 -617,-277 -617,-618 0,-341 276,-618 617,-618 341,0 617,277 617,618z"/>
     </clipPath>
     <clipPath id="id6">
      <path d="M4509 6465c0,261 -211,473 -472,473 -261,0 -472,-212 -472,-473 0,-261 211,-473 472,-473 261,0 472,212 472,473z"/>
     </clipPath>
     <clipPath id="id7">
      <path d="M4139 7050c0,319 -258,578 -577,578 -318,0 -577,-259 -577,-578 0,-319 258,-578 577,-578 318,0 577,259 577,578z"/>
     </clipPath>
     <clipPath id="id8">
      <path d="M3844 7811c0,244 -198,442 -441,442 -244,0 -441,-198 -441,-442 0,-244 198,-442 441,-442 244,0 441,198 441,442z"/>
     </clipPath>
     <clipPath id="id9">
      <path d="M2458 4318c0,245 -198,443 -442,443 -244,0 -442,-198 -442,-443 0,-245 198,-443 442,-443 244,0 442,198 442,443z"/>
     </clipPath>
     <clipPath id="id10">
      <path d="M3180 3765c0,334 -270,605 -603,605 -333,0 -603,-271 -603,-605 0,-334 270,-605 603,-605 333,0 603,271 603,605z"/>
     </clipPath>
     <clipPath id="id11">
      <path d="M4605 3661c0,504 -407,912 -910,912 -503,0 -910,-408 -910,-912 0,-504 407,-912 910,-912 503,0 910,408 910,912z"/>
     </clipPath>
     <clipPath id="id12">
      <path d="M5455 3958c0,375 -303,679 -677,679 -374,0 -677,-304 -677,-679 0,-375 303,-679 677,-679 374,0 677,304 677,679z"/>
     </clipPath>
     <clipPath id="id13">
      <path d="M5916 4820c0,416 -336,752 -751,752 -415,0 -751,-337 -751,-752 0,-416 336,-752 751,-752 415,0 751,337 751,752z"/>
     </clipPath>
     <clipPath id="id14">
      <path d="M5335 5908c0,341 -276,618 -617,618 -341,0 -617,-277 -617,-618 0,-341 276,-618 617,-618 341,0 617,277 617,618z"/>
     </clipPath>
     <clipPath id="id15">
      <path d="M4469 6375c0,261 -211,473 -472,473 -261,0 -472,-212 -472,-473 0,-261 211,-473 472,-473 261,0 472,212 472,473z"/>
     </clipPath>
     <clipPath id="id16">
      <path d="M4099 6960c0,319 -258,578 -577,578 -318,0 -577,-259 -577,-578 0,-319 258,-578 577,-578 318,0 577,259 577,578z"/>
     </clipPath>
     <clipPath id="id17">
      <path d="M3803 7720c0,244 -198,442 -441,442 -244,0 -441,-198 -441,-442 0,-244 198,-442 441,-442 244,0 441,198 441,442z"/>
     </clipPath>
 </defs>
 <g id="Camada_x0020_1">
  <metadata id="CorelCorpID_0Corel-Layer"/>
  <g id="_1388925856">
   <polygon class="fil0" points="11318,12918 11676,12955 161,11762 1252,146 11813,827 "/>
   <polygon class="fil1" points="11157,12773 11515,12810 0,11617 1090,0 11651,681 "/>
   <g>
    <path class="fil2" d="M4234 9309c0,465 -376,842 -840,842 -464,0 -840,-377 -840,-842 0,-465 376,-842 840,-842 464,0 840,377 840,842z"/>
    <path class="fil2" d="M2498 4408c0,245 -198,443 -442,443 -244,0 -442,-198 -442,-443 0,-245 198,-443 442,-443 244,0 442,198 442,443z"/>
    <g style="clip-path:url(#id0)">
     <g>
      <g>
       <path id="1" class="fil1" d="M1925 4457c-17,14 -23,35 -14,46 9,11 31,8 48,-6 17,-14 23,-35 14,-46 -9,-11 -31,-8 -48,6zm90 134c-19,12 -25,37 -14,56 12,19 37,25 56,14 19,-12 25,-37 14,-56 -12,-19 -37,-25 -56,-14zm97 -42c-19,12 -25,37 -14,56 12,19 37,25 56,14 19,-12 25,-37 14,-56 -12,-19 -37,-25 -56,-14zm71 -82c-19,12 -25,37 -14,56 12,19 37,25 56,14 19,-12 25,-37 14,-56 -12,-19 -37,-25 -56,-14zm-4 -101c-19,12 -25,37 -14,56 12,19 37,25 56,14 19,-12 25,-37 14,-56 -12,-19 -37,-25 -56,-14zm-57 -85c230,33 222,317 -12,402 -24,9 -40,14 -57,17 -41,8 -87,6 -126,-10 -11,-5 -22,-10 -30,-19 -3,-4 -6,-7 -6,-12 0,-4 1,-7 2,-9 2,-2 4,-4 6,-6 5,-4 12,-8 19,-11 5,-3 10,-5 15,-7 13,-6 35,-20 25,-38 -8,-15 -29,-14 -43,-16 -8,0 -16,-1 -24,-1 -20,-1 -35,-1 -53,-11 -9,-5 -14,-8 -17,-12 -6,-7 -9,-16 -10,-25 -2,-18 1,-32 5,-46 6,-20 15,-36 25,-51 21,-31 44,-57 74,-80 59,-45 130,-76 206,-65z"/>
       <path class="fil1" d="M1796 4375c-3,9 -7,17 -13,24 -16,18 -29,10 -50,11 -7,0 -15,2 -22,5 3,-34 34,-74 69,-61l16 22z"/>
       <path class="fil1" d="M2102 4148c-51,43 -100,89 -153,128 -49,36 -101,68 -153,98 -6,-8 -10,-14 -16,-22 45,-40 89,-84 138,-119 53,-40 111,-72 169,-107 9,4 16,14 16,22z"/>
      </g>
     </g>
    </g>
    <path class="fil3" d="M2498 4408c0,245 -198,443 -442,443 -244,0 -442,-198 -442,-443 0,-245 198,-443 442,-443 244,0 442,198 442,443z"/>
    <path class="fil2" d="M3221 3855c0,334 -270,605 -603,605 -333,0 -603,-271 -603,-605 0,-334 270,-605 603,-605 333,0 603,271 603,605z"/>
    <g style="clip-path:url(#id1)">
     <g>
      <g>
       <path id="1" class="fil1" d="M2779 3585l0 245 137 0 0 -198c0,-26 -21,-46 -46,-46l-90 0zm-152 0l0 245 136 0 0 -245 -136 0zm-152 0l0 245 136 0 0 -245 -136 0zm-106 0c-26,0 -46,21 -46,46l0 198 136 0 0 -245 -90 0zm14 -52l474 0c54,0 97,44 97,97l0 277 0 108 0 9 -1 0c-4,30 -30,53 -61,53 -4,-53 -48,-94 -102,-94 -54,0 -98,41 -102,94l-234 0c-4,-53 -48,-94 -102,-94 -54,0 -97,41 -102,93 -41,-4 -76,-28 -95,-62 -1,0 -3,0 -4,0 -28,0 -51,-27 -51,-61 0,-33 23,-61 51,-61 1,0 3,0 4,0 21,-37 61,-63 107,-63l23 0 0 -200c0,-54 44,-97 97,-97z"/>
       <path class="fil1" d="M2352 4045c-22,0 -40,18 -40,40 0,22 18,40 40,40 22,0 40,-18 40,-40 0,-22 -18,-40 -40,-40zm0 -52c51,0 92,41 92,92 0,51 -41,92 -92,92 -51,0 -92,-41 -92,-92 0,-51 41,-92 92,-92z"/>
       <path class="fil1" d="M2790 4045c-22,0 -40,18 -40,40 0,22 18,40 40,40 22,0 40,-18 40,-40 0,-22 -18,-40 -40,-40zm0 -52c51,0 92,41 92,92 0,51 -41,92 -92,92 -51,0 -92,-41 -92,-92 0,-51 41,-92 92,-92z"/>
      </g>
     </g>
    </g>
    <path class="fil3" d="M3221 3855c0,334 -270,605 -603,605 -333,0 -603,-271 -603,-605 0,-334 270,-605 603,-605 333,0 603,271 603,605z"/>
    <path class="fil2" d="M4646 3752c0,504 -407,912 -910,912 -503,0 -910,-408 -910,-912 0,-504 407,-912 910,-912 503,0 910,408 910,912z"/>
    <g style="clip-path:url(#id2)">
     <g>
      <path id="1" class="fil1" d="M3564 3729l344 0c-2,-11 -5,-22 -9,-33l-326 0c-4,11 -7,22 -9,33zm2 97l340 0c3,-10 5,-20 5,-30l-351 0c1,10 3,20 5,30zm170 189c6,-5 12,-9 17,-14 45,-36 87,-70 116,-107l-268 0c30,38 72,71 116,107 6,5 12,9 17,14zm129 231l-257 0c-6,11 -11,22 -16,33l290 0c-5,-11 -10,-22 -16,-33zm-129 -149c-29,25 -57,51 -82,82l164 0c-25,-30 -53,-57 -82,-82zm65 -784l-130 0c20,30 42,57 65,82 23,-25 45,-52 65,-82zm53 -101l-235 0c4,11 9,22 14,33l207 0c5,-11 10,-22 14,-33zm-161 228c-80,-88 -154,-194 -168,-360 -1,-17 11,-33 29,-34 17,-1 33,11 34,29 2,25 6,48 11,70l276 0c5,-22 9,-45 11,-70 1,-17 17,-30 34,-29 17,1 30,17 29,34 -15,166 -88,272 -168,360 8,8 15,16 23,23 97,98 184,185 172,337 -9,111 -90,177 -182,250l-8 6c96,83 184,187 190,368 1,17 -13,32 -30,32 -17,1 -32,-13 -32,-30 -1,-29 -4,-55 -10,-80l-333 0c-6,25 -9,51 -10,80 -1,17 -15,31 -32,30 -17,-1 -31,-15 -30,-32 6,-181 94,-285 190,-368l-8 -6c-91,-73 -173,-139 -182,-250 -12,-152 75,-239 172,-337 8,-8 15,-15 23,-23zm-85 188l257 0c-28,-42 -66,-80 -107,-121 -7,-7 -15,-15 -22,-22 -7,7 -15,15 -22,22 -40,40 -78,79 -107,121z"/>
     </g>
    </g>
    <path class="fil3" d="M4646 3752c0,504 -407,912 -910,912 -503,0 -910,-408 -910,-912 0,-504 407,-912 910,-912 503,0 910,408 910,912z"/>
    <path class="fil2" d="M5496 4049c0,375 -303,679 -677,679 -374,0 -677,-304 -677,-679 0,-375 303,-679 677,-679 374,0 677,304 677,679z"/>
    <g style="clip-path:url(#id3)">
     <g>
      <g>
       <g>
        <g>
         <g>
          <polygon id="1" class="fil4" points="4774,4099 4734,4205 4686,4205 4646,4099 4646,3665 4774,3665 "/>
          <path class="fil4" d="M4774 3658c0,35 -28,63 -63,63l-2 0c-35,0 -63,-28 -63,-63l0 -59c0,-35 28,-28 63,-28l2 0c35,0 63,-7 63,28l0 59z"/>
          <polygon class="fil4" points="4781,3764 4639,3764 4639,3629 4781,3629 "/>
         </g>
         <path class="fil4" d="M4685 4203c0,0 12,36 17,46 5,10 12,18 31,-43 0,0 -20,-18 -49,-3z"/>
        </g>
       </g>
       <g>
        <g>
         <g>
          <g>
           <polygon class="fil4" points="4966,4099 4926,4205 4878,4205 4838,4099 4838,3665 4966,3665 "/>
           <path class="fil4" d="M4966 3658c0,35 -28,63 -63,63l-2 0c-35,0 -63,-28 -63,-63l0 -59c0,-35 28,-28 63,-28l2 0c35,0 63,-7 63,28l0 59z"/>
           <polygon class="fil4" points="4973,3764 4831,3764 4831,3629 4973,3629 "/>
          </g>
          <path class="fil4" d="M4877 4203c0,0 12,36 17,46 5,10 12,18 31,-43 0,0 -20,-18 -49,-3z"/>
         </g>
         <path class="fil4" d="M4959 3655c0,0 35,17 37,30 3,12 2,227 2,227 0,0 5,16 -14,16l0 -178 -14 -20 -12 -75 1 1z"/>
        </g>
       </g>
      </g>
     </g>
    </g>
    <path class="fil3" d="M5496 4049c0,375 -303,679 -677,679 -374,0 -677,-304 -677,-679 0,-375 303,-679 677,-679 374,0 677,304 677,679z"/>
    <path class="fil2" d="M5956 4911c0,416 -336,752 -751,752 -415,0 -751,-337 -751,-752 0,-416 336,-752 751,-752 415,0 751,337 751,752z"/>
    <g style="clip-path:url(#id4)">
     <g>
      <g>
       <path id="1" class="fil1" d="M4764 5069l0 87 -169 0 0 -87c8,-6 14,-16 18,-32 2,-8 3,-15 5,-23l65 -348 218 0 72 356c2,11 5,21 7,27 5,11 11,18 18,21l0 87 -193 0 0 -87c12,-5 18,-14 18,-27 0,-3 -1,-8 -2,-14l-74 0c-2,6 -2,11 -2,14 0,15 7,23 20,27zm-8 -137l50 0 -25 -145 -25 145z"/>
       <path class="fil1" d="M5206 4948l0 107 13 0c19,0 32,-4 39,-12 7,-8 11,-22 11,-42 0,-19 -4,-33 -11,-41 -7,-8 -21,-12 -39,-12l-13 0zm0 -180l0 88 10 0c18,0 31,-3 39,-9 8,-6 12,-18 12,-36 0,-17 -4,-29 -12,-35 -8,-6 -21,-9 -39,-9l-10 0zm57 389l-229 0 0 -87c8,-3 13,-8 15,-15 3,-6 4,-15 4,-24l0 -239c0,-10 -1,-19 -3,-25 -2,-6 -8,-11 -16,-14l0 -87 222 0c27,0 49,1 66,3 17,2 34,8 50,18 16,10 28,25 36,44 7,17 11,37 11,59 0,29 -6,53 -18,71 -12,18 -32,31 -59,39 29,4 51,18 66,40 13,20 19,45 19,77 0,23 -3,43 -9,61 -7,21 -18,38 -33,50 -15,12 -34,20 -57,25 -15,3 -36,4 -65,4z"/>
       <path class="fil1" d="M5667 4844l0 -29 0 -12c0,-16 -2,-27 -7,-32 -5,-6 -12,-9 -21,-9 -12,0 -20,5 -24,14 -3,6 -4,16 -4,29l0 11 0 189 0 13c0,16 2,27 7,33 5,6 12,9 21,9 12,0 20,-5 24,-14 3,-6 4,-16 4,-29l0 -12 0 -56 148 0 0 164c-20,16 -44,29 -74,38 -29,9 -60,14 -91,14 -34,0 -63,-3 -90,-10 -26,-7 -47,-17 -62,-31 -19,-17 -31,-40 -36,-67 -3,-15 -5,-41 -5,-78l0 -170c0,-27 2,-48 7,-63 6,-21 18,-39 35,-53 15,-13 36,-22 61,-28 26,-6 54,-9 84,-9 29,0 58,5 88,14 29,9 57,22 82,39l0 135 -148 0z"/>
      </g>
     </g>
    </g>
    <path class="fil3" d="M5956 4911c0,416 -336,752 -751,752 -415,0 -751,-337 -751,-752 0,-416 336,-752 751,-752 415,0 751,337 751,752z"/>
    <path class="fil2" d="M5375 5998c0,341 -276,618 -617,618 -341,0 -617,-277 -617,-618 0,-341 276,-618 617,-618 341,0 617,277 617,618z"/>
    <g style="clip-path:url(#id5)">
     <g>
      <path id="1" class="fil1" d="M4843 5770c-30,0 -54,24 -54,54 0,30 24,54 54,54 30,0 54,-24 54,-54 0,-30 -24,-54 -54,-54zm-38 430c-14,0 -26,12 -26,26 0,14 12,26 26,26 14,0 26,-12 26,-26 0,-14 -12,-26 -26,-26zm-308 158l259 0 0 -53c-33,7 -70,9 -53,-26l3 -6 -24 -7c-12,6 -30,7 -51,3 -36,-7 -65,-27 -65,-45 0,-18 29,-27 64,-20 36,7 65,27 65,45 0,2 0,5 -1,7l18 5c19,-42 37,-84 55,-125l-211 -56c-4,-1 -7,-6 -6,-10l5 -19c1,-4 6,-7 10,-6l264 69c4,1 7,6 6,10l-3 13c8,1 14,0 21,0 73,-1 101,-89 92,-139 -14,-73 -98,-47 -134,-57l-20 63c-3,9 -13,15 -23,12l-5 -2 -9 28c-2,5 -7,8 -13,7l-37 -12c-5,-2 -8,-7 -7,-13l9 -28 -5 -2c-9,-3 -15,-13 -12,-23l104 -330c3,-9 13,-15 23,-12l4 1 30 -94 -3 -1c-3,-1 -5,-5 -4,-8l5 -15c1,-3 5,-5 8,-4l62 19c3,1 5,5 4,8l-5 15c-1,3 -5,5 -8,4l-3 -1 -30 94 6 2c9,3 15,13 12,23l-13 43c11,2 22,11 32,19 165,139 125,406 -32,518l63 104 32 0c6,0 10,5 10,10l0 18c0,6 -5,10 -10,10l-477 0c-6,0 -10,-5 -10,-10l0 -18c0,-6 5,-10 10,-10z"/>
     </g>
    </g>
    <path class="fil3" d="M5375 5998c0,341 -276,618 -617,618 -341,0 -617,-277 -617,-618 0,-341 276,-618 617,-618 341,0 617,277 617,618z"/>
    <path class="fil2" d="M4509 6465c0,261 -211,473 -472,473 -261,0 -472,-212 -472,-473 0,-261 211,-473 472,-473 261,0 472,212 472,473z"/>
    <g style="clip-path:url(#id6)">
     <g>
      <path id="1" class="fil1" d="M4127 6533c10,21 20,46 32,64 34,49 60,96 81,152 1,3 3,17 3,17 0,18 3,16 4,25 0,1 1,6 0,6 -1,1 -5,1 -7,1 -2,0 -5,0 -6,-3 -1,-3 -3,-6 -3,-11 -1,-5 0,-20 1,-25 1,-4 0,-7 0,-10 -1,-4 -4,-11 -4,-12 -5,-10 -10,-26 -16,-38 -20,-45 -55,-89 -78,-132 -5,-10 -10,-20 -14,-29l-1 -1c0,2 0,3 0,4 0,0 -2,18 -3,21 -1,3 -7,16 -9,20 -1,4 -10,26 -10,26 0,0 -1,-4 -1,-6 0,-1 -4,-6 -4,-6 0,0 -3,-2 -5,-2 -1,0 -4,1 -6,6 -3,5 -5,7 -8,13 -3,5 -7,11 -7,11 -2,2 -3,4 -5,6 -2,-2 -2,-4 -3,-5 -2,-1 -1,-6 -6,0 -5,6 -9,10 -9,10 0,0 -4,3 -6,5 -1,1 -5,5 -5,5 0,0 0,-1 0,-2 0,-1 1,-3 -1,-1 -2,2 -3,2 -6,4 -3,2 -7,4 -8,6 -2,2 -4,4 -4,4l-1 -1c0,0 -1,-1 -1,0 -1,1 0,-1 -3,2 -3,3 -5,4 -6,5 -1,1 -4,3 -5,4 -1,1 -3,4 -3,4 0,1 -1,1 -1,2 0,0 0,-1 0,-1 0,-1 2,-7 2,-7l1 -6c0,-1 2,-5 2,-6 0,-1 2,-5 2,-6l2 -7c1,-1 1,-3 2,-4l1 -3 -1 -2 -2 1 -1 1c0,0 0,-2 0,-2 0,-1 1,-3 1,-4l2 -4c1,-1 1,-2 2,-3 1,-2 2,-3 3,-5 0,0 2,-4 2,-5 0,-1 2,-4 3,-5l5 -13 1 -7 1 -8 -5 -1c-2,0 -4,-1 -5,-1 0,0 -6,-1 -7,-1 -1,0 -6,1 -8,1 -1,0 -7,2 -9,2 -1,0 -7,3 -9,4 -1,1 -3,2 -5,3 -1,1 -4,2 -5,2 -1,0 -4,1 -5,1 0,0 -2,0 -3,0 -1,0 -4,0 -4,0l1 -2 1 -4 -1 -3 -2 -2 -8 2 -5 0c-1,0 -4,1 -4,1 -1,0 -5,1 -6,1 -1,0 -3,1 -4,1l-6 1 -1 -1c0,0 1,-2 1,-2 0,-1 0,-2 0,-2 0,-1 0,-1 -2,-1 -2,0 -3,1 -4,1 -1,1 -4,2 -5,2 -1,0 -5,1 -5,1l-2 0 -5 -1c-1,0 -6,2 -7,2 -1,0 -4,0 -5,1 -1,0 -3,0 -3,0 -1,0 -2,-1 -3,0 -1,0 -5,0 -6,0 -1,0 -5,-1 -4,-1 1,0 7,-2 7,-2 1,-1 2,-2 3,-4 1,-1 2,-1 3,-2l4 -3 0 -3c0,-1 0,-1 0,-2 0,0 2,-3 2,-4 1,-1 4,-4 4,-5 0,-1 3,-5 3,-5 0,-1 2,-5 3,-7 1,-2 4,-8 4,-8 0,0 -4,-3 -6,-3 -3,-1 -10,-5 -12,-6 -2,0 -7,-2 -10,-2 -3,1 -8,0 -9,-1 -1,0 -3,-2 -4,-3 0,-1 -3,-2 -6,-2 -3,0 -6,0 -7,0 -2,0 -2,-1 -2,-2l-3 -2c0,0 -5,0 -6,0 -1,0 -6,-1 -6,-1l-2 -1c0,0 4,-2 5,-3 0,-1 4,-4 5,-5 0,-1 2,-4 3,-6 1,-2 2,-4 1,-4 0,-1 -4,-4 -5,-4 -1,-1 -7,-4 -7,-5 0,-1 -5,-5 -7,-6 -2,-1 -6,-2 -6,-2 -1,0 -3,-2 -4,-2 -1,0 -4,-3 -4,-3l0 -1 3 -1 2 -2 1 -2 -1 -2 -2 -1c0,0 -4,-3 -6,-4 -2,-1 -6,-2 -6,-3 -1,-1 -4,-4 -4,-4 0,0 4,-2 3,-3 0,-1 -1,-3 -5,-4 -3,-1 -8,-3 -8,-3 0,0 -1,-2 -1,-3 0,-1 -3,-3 -5,-3 -2,0 -7,-2 -9,-4 -2,-1 -4,-3 -6,-4 -1,-1 -7,-4 -5,-4 2,0 8,0 9,0 1,0 14,1 14,1 3,0 5,0 8,0 2,0 3,0 5,0 0,-1 0,-1 0,-2 1,0 2,-1 4,-1 0,0 5,-1 7,-1 1,0 8,0 9,0 1,0 4,0 4,0l0 -2 -2 -4c0,0 1,-1 3,0 2,1 10,1 10,1 0,0 11,1 12,1 1,0 10,1 10,1 0,-1 2,-6 2,-6 0,-1 0,-3 -2,-4 -2,-1 -4,-2 -2,-2 2,0 12,2 12,2 0,0 15,4 18,5 2,0 16,3 17,3 1,0 2,-3 2,-3 1,-3 2,-6 3,-9 -1,-2 -1,-3 -2,-5 0,0 11,3 13,4 2,0 3,-2 3,-2 0,0 6,4 7,5 1,1 11,4 11,4 0,-1 0,-2 1,-3 0,0 6,3 7,4 1,1 20,13 22,13 2,0 12,3 15,3 3,1 15,2 15,2 0,0 2,-3 -3,-9 -5,-6 -12,-16 -16,-18 -4,-2 -11,-11 -14,-13 -4,-2 -14,-8 -16,-8 -2,-1 -12,-5 -14,-5 -1,0 -7,-4 -7,-4 -1,-1 -4,-2 -3,-3 1,0 6,-1 6,-2 0,-1 2,-2 0,-4 -1,-2 -5,-4 -6,-5 -1,-1 -4,-3 -4,-3 0,0 -11,-7 -12,-8 -1,-1 -6,-4 -6,-4 0,0 5,-2 5,-2 0,-1 0,-3 -1,-4 -2,0 -16,-12 -16,-12 0,0 -3,-1 -2,-2 0,-1 2,-2 0,-3 -2,-1 -6,-4 -6,-4 -1,0 -4,-5 -5,-6 0,-1 -3,-4 -2,-4 1,0 2,0 5,1 3,1 12,2 13,3 1,0 10,0 10,-1l5 -2c-1,-1 -1,-1 -2,-2 0,0 1,-1 2,-1 1,0 16,0 19,-1 3,0 4,-1 9,-2 4,-1 8,-3 8,-3 0,-1 -1,-6 -1,-9 -1,-3 -5,-14 -5,-15 -1,-1 -7,-12 -8,-13 -1,-1 -5,-8 -6,-8 0,-1 -2,-2 0,-2 2,0 2,-1 2,-2 -1,-1 -2,-3 -3,-4 -1,-1 -3,-6 -4,-6l-4 -8 -4 -6c7,1 13,2 20,1 2,0 6,-1 7,-3 0,-1 0,-5 0,-6 0,-1 -2,-12 -2,-13 0,-1 -3,-9 -3,-9 -1,-3 -2,-7 -3,-10 0,0 5,2 6,2 1,0 4,-1 3,-2 -1,-2 -1,-5 -2,-6 0,-2 -1,-6 -1,-6 0,0 -2,-4 -2,-4 0,-1 0,-5 0,-5 1,0 2,0 3,0 0,-1 0,-3 0,-4 -3,-10 -6,-19 -9,-29l0 -1c3,3 14,22 16,26 1,1 2,1 3,2 1,-1 1,-2 2,-2 0,0 3,3 3,3 0,1 2,5 2,5 0,0 3,4 4,5 1,1 3,4 4,5 1,2 3,-1 4,-1 1,-1 3,-6 3,-6 2,3 4,6 6,9 0,0 4,7 5,8 0,1 8,10 9,10 0,0 3,3 5,4 1,1 5,-2 6,-3 1,-1 7,-7 7,-7 2,-3 4,-6 5,-9l2 7 3 8c0,1 2,5 2,7 0,1 1,4 2,5 0,1 1,1 3,0 1,-1 1,1 2,1 0,1 2,8 3,10 5,11 5,17 13,28 2,3 6,7 6,7 0,1 4,-2 8,-4 4,-3 6,-3 7,-5 2,-2 5,-6 6,-6 0,-1 6,-7 7,-7 0,-1 2,-1 2,-1 0,1 0,2 1,3l5 -3c1,0 7,-7 7,-7 0,-1 5,-9 7,-12 1,-2 2,-4 2,-4 1,-1 1,3 1,4 0,1 1,7 1,7 0,1 -1,6 -1,7 0,2 2,1 3,2 1,1 0,3 0,3 0,0 0,19 -1,20 -1,1 1,3 2,3 1,0 5,-2 5,-2 0,0 -1,6 0,7 0,1 -1,14 -1,14 0,0 -1,4 -1,5 0,1 0,6 0,8 0,2 2,2 3,2 1,0 5,-3 5,-3 1,0 0,3 0,4 0,1 -1,7 -2,8 -1,1 -5,12 -5,14 -6,17 -1,23 -3,36 -1,4 2,15 4,23 1,8 5,9 5,9 0,0 6,-10 8,-13 2,-3 6,-12 7,-14 1,-2 5,-24 4,-25 0,-2 1,-8 1,-8 1,1 2,1 3,2 0,0 4,-9 4,-11 0,-1 1,-8 1,-8 0,0 2,0 3,-1 1,-2 6,-12 6,-12 1,2 2,3 2,5 3,1 6,2 8,4 0,0 2,1 3,0 1,-1 8,-13 9,-15 1,-2 8,-17 8,-17 0,0 5,-10 6,-11 1,-1 1,1 0,3 0,2 2,3 2,4 0,1 5,2 6,3 1,0 6,-8 6,-8l7 -10c0,0 5,-6 5,-8 0,-2 2,-2 2,-2l2 3 2 1c0,0 2,-2 3,-3 1,-1 5,-6 6,-7 1,-1 5,-5 5,-5 1,-1 2,-1 3,-2 1,0 1,1 2,1 1,-1 2,-3 3,-4 2,-2 4,-4 5,-6 0,0 8,-11 8,-12 0,-1 4,-6 5,-7 1,-1 0,5 0,7 0,2 0,5 0,7 0,2 -2,7 -3,9 -1,2 -1,5 -1,6 1,1 2,3 2,3 0,0 -1,5 -3,8 -1,3 -1,5 0,6 0,1 5,0 5,0 0,0 0,5 0,6 0,1 -1,4 -2,6 0,2 0,6 -1,7l0 3c0,1 0,2 0,2l3 1 3 -1 3 -2 1 1c0,0 0,4 -1,5 0,1 0,4 -1,4 0,1 -2,5 -2,6 -1,2 0,9 0,9 0,1 -1,7 -1,9 0,1 -1,6 0,7 0,1 3,1 4,2 2,0 5,1 6,2 1,1 6,0 7,0 1,0 4,-2 5,-2 1,0 0,2 -1,2 -1,0 -3,5 -3,5 -1,1 -3,4 -4,4 0,0 0,3 0,4 0,1 1,2 0,3 -1,1 -2,3 -4,6 -2,2 -3,5 -2,6 0,1 0,4 0,5 -1,1 -3,5 -5,7 -2,2 -4,7 -5,9 -1,2 -2,11 -3,13 -1,2 -2,7 -2,7 0,0 7,2 9,3 2,0 7,2 7,2 1,0 6,1 6,1 0,0 5,0 6,0 1,0 4,0 4,0l2 1 2 2 5 -1c1,0 2,-1 3,-1 2,0 3,0 5,0 0,0 5,-3 6,-3 1,-1 -2,3 -2,4 -1,1 -3,4 -4,4 -1,1 -1,2 -1,2 0,0 -2,2 -2,2 -1,0 -3,3 -3,3 -1,0 -5,4 -6,4l-2 5 -1 2c0,0 -3,3 -4,4 -1,0 -4,2 -5,2 -1,0 -2,1 -4,2 -1,1 -1,1 0,2 0,1 1,1 2,1 1,0 2,0 3,0l0 1 -4 4c0,0 -2,2 -3,2 -1,0 -4,3 -5,3l-4 2 -4 4 -7 5 0 2 1 3 3 1 2 0c0,0 -2,3 -2,3 -1,1 -2,2 -2,2 0,0 -3,2 -4,3 -1,0 -4,2 -5,2 -1,1 -3,1 -5,2 -1,1 -7,4 -9,5 -1,1 -6,4 -7,5 -1,1 -5,5 -6,5 -1,0 -4,5 -4,5 -1,2 -2,3 -3,5l-2 5 6 4 6 4 13 4c1,0 4,1 5,1 1,0 6,2 6,2 2,0 4,1 6,1 1,0 2,0 4,1l4 1c1,0 3,1 4,1 1,0 2,1 2,1 0,0 -1,0 -2,0 -1,0 -2,1 -2,1l1 2 3 1c1,0 3,1 4,1l7 3c1,0 5,1 6,2 1,0 5,2 6,2l6 3c0,0 6,3 6,3 1,0 1,1 1,1 -1,0 -1,0 -2,0 0,0 -4,0 -5,0 -1,0 -5,1 -6,1 -1,0 -4,1 -8,1 -4,0 -3,1 -4,1 -1,0 -1,1 -1,1l0 1c0,0 -4,0 -6,0 -3,0 -6,2 -10,3 -3,1 -4,1 -7,2 -3,0 0,1 1,1 1,0 1,1 1,1 0,0 -5,1 -7,1 -2,0 -7,1 -7,1 0,0 -5,1 -13,0 -8,0 -4,3 -4,4 -1,2 2,3 2,6 -3,0 -5,0 -8,-1 0,0 -7,-1 -13,-2 -6,-1 -9,-1 -15,-2 -6,-1 -8,1 -9,1 -1,1 -2,5 -2,5 0,0 2,6 2,7 1,1 3,5 3,5 0,0 -23,-7 -27,-9 -18,-7 -28,-16 -34,-23z"/>
     </g>
    </g>
    <path class="fil3" d="M4509 6465c0,261 -211,473 -472,473 -261,0 -472,-212 -472,-473 0,-261 211,-473 472,-473 261,0 472,212 472,473z"/>
    <path class="fil2" d="M4139 7050c0,319 -258,578 -577,578 -318,0 -577,-259 -577,-578 0,-319 258,-578 577,-578 318,0 577,259 577,578z"/>
    <g style="clip-path:url(#id7)">
     <g>
      <g>
       <path id="1" class="fil5" d="M3314 7394l129 0c45,-23 76,-71 76,-125 0,-62 -40,-115 -96,-134l0 -243 15 0c6,0 11,-5 11,-10l0 -4c0,-6 -5,-10 -11,-10l-121 0c-6,0 -10,5 -10,10l0 4c0,6 5,10 10,10l15 0 0 243c-56,19 -96,72 -96,134 0,55 31,102 76,125z"/>
       <path class="fil5" d="M3763 7153l53 84 68 108c3,5 5,11 4,16 0,5 -2,11 -6,16 -4,5 -9,9 -15,12 -6,3 -13,4 -20,4l-129 0 -129 0c-7,0 -14,-1 -20,-4 -6,-3 -11,-7 -15,-12 -4,-5 -6,-10 -6,-16 0,-5 1,-11 4,-16l68 -108 53 -84 0 -267 -15 0c-6,0 -10,-5 -10,-11l0 -6c0,-6 5,-10 10,-10l121 0c6,0 11,5 11,10l0 6c0,6 -5,11 -11,11l-15 0 0 267z"/>
       <path class="fil5" d="M3388 6725c22,0 39,17 39,39 0,22 -17,39 -39,39 -22,0 -39,-17 -39,-39 0,-22 17,-39 39,-39z"/>
       <path class="fil5" d="M3692 6753c22,0 39,17 39,39 0,22 -17,39 -39,39 -22,0 -39,-17 -39,-39 0,-22 17,-39 39,-39z"/>
       <path class="fil5" d="M3598 6706c22,0 39,17 39,39 0,22 -17,39 -39,39 -22,0 -39,-17 -39,-39 0,-22 17,-39 39,-39z"/>
       <path class="fil5" d="M3496 6777c22,0 39,17 39,39 0,22 -17,39 -39,39 -22,0 -39,-17 -39,-39 0,-22 17,-39 39,-39z"/>
      </g>
     </g>
    </g>
    <path class="fil3" d="M4139 7050c0,319 -258,578 -577,578 -318,0 -577,-259 -577,-578 0,-319 258,-578 577,-578 318,0 577,259 577,578z"/>
    <path class="fil2" d="M3844 7811c0,244 -198,442 -441,442 -244,0 -441,-198 -441,-442 0,-244 198,-442 441,-442 244,0 441,198 441,442z"/>
    <g style="clip-path:url(#id8)">
     <g>
      <g>
       <g>
        <path id="1" class="fil6" d="M3402 7429c-119,0 -215,96 -215,215 0,119 96,215 215,215 119,0 215,-96 215,-215 0,-119 -96,-215 -215,-215zm0 390l0 0c-97,0 -175,-78 -175,-175 0,-97 78,-175 175,-175 97,0 175,78 175,175 0,97 -78,175 -175,175z"/>
        <polygon class="fil6" points="3432,8046 3373,8046 3373,7836 3432,7836 "/>
        <path class="fil6" d="M3449 8146c0,26 -21,47 -47,47 -26,0 -47,-21 -47,-47l0 -198c0,-26 21,-47 47,-47 26,0 47,21 47,47l0 198z"/>
       </g>
      </g>
     </g>
    </g>
    <path class="fil3" d="M3844 7811c0,244 -198,442 -441,442 -244,0 -441,-198 -441,-442 0,-244 198,-442 441,-442 244,0 441,198 441,442z"/>
    <path class="fil7" d="M3797 9609c0,22 -5,64 -13,123 -9,65 -18,104 -25,116 -6,10 -15,15 -26,15 -5,0 -13,-1 -24,-2 -38,-5 -149,-8 -333,-8 -40,0 -100,0 -179,-1 -79,-1 -139,-1 -179,-1 -17,0 -26,-7 -26,-23 0,-59 3,-146 10,-263 6,-117 10,-205 10,-263 0,-60 -3,-170 -10,-333 -2,-42 -5,-104 -9,-187l-1 -11c-1,-12 6,-18 20,-18 39,0 97,1 175,3 78,2 135,3 174,3 38,0 96,-1 172,-3 77,-2 134,-3 172,-3 27,0 43,10 47,30 3,12 7,48 13,109 6,60 8,97 8,110 0,11 -5,16 -16,16 -3,0 -9,0 -16,-1 -139,-11 -264,-17 -375,-17 -28,0 -45,6 -51,20 -3,6 -4,26 -4,60 0,36 5,59 16,70 9,10 26,15 51,15 5,0 15,0 30,-1 15,-1 28,-1 38,-1 66,0 133,-2 200,-5 6,-1 20,-2 43,-4 18,-2 32,-3 42,-3 13,0 19,6 19,18 0,-11 -5,29 -14,120 -4,42 -6,83 -6,125 0,10 -7,16 -23,16 0,0 -24,-3 -71,-8 -30,-3 -98,-5 -204,-5l-83 0c-21,0 -34,5 -38,16 -1,2 -1,19 -1,49 0,40 3,65 8,77 9,20 43,32 100,35 -1,0 37,0 114,0 28,0 69,-2 123,-7 55,-5 95,-7 123,-7 12,0 17,9 17,28z"/>
    <path class="fil7" d="M5185 9761c0,51 -2,81 -7,91 -6,11 -24,17 -53,17 -5,0 -15,0 -32,0 -16,-1 -29,-1 -40,-1 -11,0 -27,-1 -48,-2 -21,-1 -37,-1 -47,-1 -9,0 -47,-49 -115,-147 -68,-98 -103,-147 -106,-148 -11,9 -48,60 -111,155 -61,91 -96,137 -107,141 -7,2 -27,3 -59,3 -107,0 -160,-6 -160,-17 0,-11 -1,-26 -2,-47 -1,-20 -2,-35 -2,-45 0,-65 4,-103 12,-114 1,-1 45,-57 134,-170 72,-91 108,-143 108,-156 0,-13 -36,-65 -108,-157 -46,-56 -91,-113 -136,-170 -5,-7 -7,-18 -9,-34 -1,-11 -1,-26 0,-45 1,-22 2,-35 2,-38 0,-10 -1,-27 -3,-49 -2,-22 -3,-38 -3,-48 0,-10 9,-15 27,-15 12,0 30,1 53,2 23,2 41,2 52,2 10,0 26,-1 46,-2 20,-1 35,-2 45,-2 8,0 47,49 115,149 68,99 104,149 107,149 10,-6 49,-58 114,-156 63,-94 99,-141 108,-141l187 0c18,0 28,5 28,13l0 191c0,13 -42,72 -126,176 -84,104 -126,159 -126,165 0,9 37,61 111,156 87,111 132,169 136,174 7,12 11,51 11,119zm1060 -575c0,126 -33,229 -99,307 -71,83 -169,125 -294,125 -21,0 -52,-1 -95,-3 -42,-2 -74,-3 -94,-3 -22,0 -34,10 -34,29 0,24 2,60 7,107 5,48 7,83 7,106 0,12 -5,18 -16,18 -32,0 -80,-1 -143,-3 -64,-2 -111,-3 -143,-3 -15,0 -23,-7 -23,-23 0,-58 1,-145 2,-261 2,-116 2,-203 2,-261 0,-164 -7,-336 -22,-517l-1 -11c-1,-10 7,-16 24,-18 41,-5 131,-8 270,-8 82,0 161,1 236,3 124,3 223,43 299,117 77,76 116,176 116,299zm-313 13c0,-122 -59,-183 -177,-183 -83,0 -127,5 -131,14 -3,7 -5,67 -5,181 0,16 1,40 2,72 1,32 2,56 2,72 0,10 47,16 141,16 113,0 170,-57 170,-172zm1222 424c0,22 -5,64 -13,123 -9,65 -18,104 -25,116 -6,10 -15,15 -26,15 -5,0 -13,-1 -24,-2 -38,-5 -149,-8 -333,-8 -40,0 -100,0 -179,-1 -79,-1 -139,-1 -179,-1 -17,0 -26,-7 -26,-23 0,-59 3,-146 10,-263 6,-117 10,-205 10,-263 0,-60 -3,-170 -10,-333 -2,-42 -5,-104 -9,-187l-1 -11c-1,-12 6,-18 20,-18 39,0 97,1 175,3 78,2 135,3 174,3 38,0 96,-1 172,-3 77,-2 134,-3 172,-3 27,0 43,10 47,30 3,12 7,48 13,109 6,60 8,97 8,110 0,11 -5,16 -16,16 -3,0 -9,0 -16,-1 -139,-11 -264,-17 -375,-17 -28,0 -45,6 -51,20 -3,6 -4,26 -4,60 0,36 5,59 16,70 9,10 26,15 51,15 5,0 15,0 30,-1 15,-1 28,-1 38,-1 66,0 133,-2 200,-5 6,-1 20,-2 43,-4 18,-2 32,-3 42,-3 13,0 19,6 19,18 0,-11 -5,29 -14,120 -4,42 -6,83 -6,125 0,10 -7,16 -23,16 0,0 -24,-3 -71,-8 -30,-3 -98,-5 -204,-5l-83 0c-21,0 -34,5 -38,16 -1,2 -1,19 -1,49 0,40 3,65 8,77 9,20 43,32 100,35 -1,0 37,0 114,0 28,0 69,-2 123,-7 55,-5 95,-7 123,-7 12,0 17,9 17,28z"/>
    <g>
     <path class="fil7" d="M5988 7302l7 -9c4,-6 10,-10 18,-11 8,-1 15,-3 23,-7l134 -37c13,-3 28,-6 47,-7l29 -9c8,-4 19,-5 33,-5l30 -6c2,0 5,2 7,7 2,5 3,7 4,7 28,-19 47,-28 54,-28l2 0 22 6c4,0 8,-2 12,-7l3 -3c13,6 21,9 22,9 9,0 19,-2 31,-6 11,-3 23,-5 33,-5l28 2 62 -4c4,0 8,2 12,6l18 -4c18,0 35,2 52,7 17,5 38,9 62,11 24,2 42,11 53,25l15 5 11 0c16,0 25,6 28,19 4,7 11,14 22,22l12 19c-1,4 -2,7 -2,11 0,3 7,8 20,13l4 2c1,9 7,19 17,31 11,12 16,34 16,66l0 22 4 47c0,32 -10,71 -28,116 -19,45 -39,77 -60,95 -5,16 -11,24 -17,24 -21,19 -35,29 -41,29 -1,0 -3,-1 -5,-2 -8,15 -21,27 -40,38 -18,11 -30,17 -36,19 -6,2 -19,7 -42,15l-22 -5c-9,8 -15,13 -19,13l-48 20c-41,11 -67,16 -80,16l-23 -7c-3,0 -9,5 -16,14l-17 4c-4,-4 -15,-6 -35,-8 -9,6 -15,8 -21,8l-40 5c-5,0 -8,-4 -9,-14l-8 3 -4 13c-2,1 -6,2 -9,2l-48 -5 -23 5 -37 -7 -18 2 -15 -7 -14 2 -15 -4 -17 4 -4 -2c-2,5 -5,9 -9,12 -4,3 -8,10 -15,19 -14,11 -23,25 -26,42 -4,16 -14,25 -32,27 -1,2 -3,6 -6,9 1,1 3,7 6,15l0 4c0,15 -12,29 -36,45 -3,22 -8,37 -13,47 -5,10 -9,18 -11,24 -2,6 -7,12 -15,16l-3 6 0 26c0,1 -2,5 -6,11 -4,6 -9,15 -15,28l-6 9 -7 30c-12,9 -18,20 -18,36l2 52c0,9 -6,19 -18,28 -12,10 -24,15 -35,15 -30,0 -50,-18 -61,-54l-6 -7c-13,-11 -19,-26 -19,-46 0,-23 12,-59 37,-106l60 -108c1,-1 8,-6 24,-16l10 3c2,-1 4,-3 4,-7 0,-1 -3,-10 -10,-26l0 -4c0,-5 2,-8 6,-9l7 -8 -2 -18c11,-16 17,-27 17,-32l9 -21c6,-14 11,-21 15,-22 0,-24 7,-42 22,-54l7 -15c2,-4 6,-6 12,-7 6,-1 9,-2 9,-3 0,-2 -1,-5 -3,-9 -2,-4 -3,-7 -3,-9 0,-6 3,-14 11,-23 7,-10 12,-15 15,-15l14 8 0 -6c-6,-5 -9,-10 -9,-14 0,-5 3,-11 8,-19 5,-8 9,-14 10,-18l7 -9c1,0 4,-8 9,-25 5,-17 12,-25 21,-24l0 -9c0,-6 7,-20 21,-43l48 -85c1,-6 6,-17 15,-32l-2 -22c0,-10 6,-25 17,-45 11,-21 20,-31 28,-31 4,0 6,1 8,2 2,1 3,2 4,2l15 -2 29 26c8,6 12,18 14,35l4 6c15,28 23,47 23,59 0,15 -2,25 -4,33 -3,7 -12,16 -28,27 -15,18 -24,33 -28,46 -3,13 -10,25 -19,37 -9,11 -16,28 -23,51 -7,22 -18,39 -35,50 -2,16 -4,30 -7,42l0 2c0,4 2,6 7,6l30 -4c4,0 8,1 13,3 5,2 10,3 15,3 5,0 11,-2 18,-7l6 0c2,0 10,3 23,9l4 -2c3,-6 7,-9 11,-9l35 3 17 -2c8,-5 21,-8 39,-9 18,-1 30,-2 37,-5 7,-3 13,-5 19,-6 5,-1 12,-3 21,-7 9,-4 16,-6 22,-6 14,0 33,-6 58,-19 8,2 13,3 15,3 11,0 21,-5 28,-15 7,-10 15,-15 24,-16l55 -24c5,-2 15,-12 32,-30l16 -11 11 -15c0,-1 6,-5 17,-11 -2,-1 -4,-3 -6,-5l20 -23c-1,-6 -2,-10 -2,-11l0 -3c6,-9 12,-16 19,-20 6,-4 10,-7 10,-8l-9 -11c9,-9 13,-14 13,-16l-3 -26 3 -46c0,-24 -1,-39 -4,-46 -3,-7 -5,-14 -6,-21 -11,-22 -28,-41 -48,-55 -2,-1 -3,-3 -3,-6l-2 -9 0 -4 -29 4c-1,0 -3,-3 -6,-9 -3,-6 -7,-9 -13,-9l-13 6 -2 0c-4,0 -15,-6 -32,-17 -4,-1 -11,-2 -23,-2l-13 -5c-3,-2 -6,-4 -9,-4l-6 0 -21 4 -46 -4 -28 -6c-11,7 -17,11 -20,11 -2,0 -8,-2 -17,-6l-2 0 -27 4c-9,1 -15,2 -21,3l-5 0c-20,0 -36,-2 -46,-5l-5 0c-7,0 -12,2 -16,7 -4,4 -8,7 -12,7 -2,0 -6,-4 -9,-12 -8,6 -14,10 -17,12l-16 -6c-2,5 -21,10 -55,15l-43 9 -7 -2c-14,5 -25,8 -34,10 -9,2 -17,4 -24,7 -7,3 -14,6 -22,7 -8,1 -19,4 -34,9l-15 -4c-11,6 -28,15 -50,23 -22,9 -36,16 -41,22 -6,6 -11,8 -15,8 -1,0 -5,-1 -11,-2l-2 0c-6,0 -14,6 -27,19 -12,12 -23,21 -32,27 -9,6 -17,14 -24,26 -7,12 -23,20 -48,26 -1,1 -2,3 -4,5l0 15c-10,6 -18,16 -26,32l-5 9 -2 17c0,18 -2,28 -7,29 -5,1 -10,4 -15,8 -5,4 -10,6 -15,6 -11,0 -20,-9 -29,-27 -9,-18 -14,-29 -14,-32 0,-36 12,-62 35,-79l67 -49c23,-16 41,-24 57,-24 5,-2 10,-8 15,-17 5,-9 18,-16 37,-20l15 6c1,0 3,-2 5,-7 2,-5 6,-9 11,-12 5,-3 10,-7 13,-12l24 -15c1,0 2,-1 4,-2l14 4c1,0 3,-1 5,-2 2,-1 7,-2 13,-2 2,0 4,-3 6,-9 2,-3 6,-5 10,-6zm823 618l13 -3 6 -12c29,-17 50,-34 63,-50 1,-2 4,-5 8,-7 4,-2 9,-7 13,-13 22,-23 49,-34 80,-34 36,0 55,22 58,66l6 14c5,8 11,26 20,52 9,26 13,42 13,48 0,16 -5,33 -15,49 -8,4 -29,27 -61,68l-9 7c-5,11 -11,22 -19,32 -12,4 -18,9 -18,14l0 16c0,1 -2,4 -4,7 -2,4 -6,11 -11,21l-7 11c-2,2 -5,7 -7,15 -2,8 -6,15 -11,20 -5,6 -7,11 -7,15 0,9 12,14 35,14 1,0 6,-2 14,-6l13 4c1,0 4,-2 9,-6 5,-4 12,-7 22,-10 10,-2 19,-6 26,-11 7,-5 17,-9 27,-13 11,-3 21,-10 30,-18 10,-8 19,-14 29,-18 9,-4 18,-9 26,-17 8,-7 17,-15 28,-21 11,-7 27,-21 49,-43 15,-11 24,-18 30,-19 1,0 6,-8 16,-24 9,-16 20,-24 32,-24 13,0 19,6 19,18 0,7 -3,13 -9,19l0 6 2 14c1,2 2,5 2,8 0,2 -2,6 -7,11 -4,5 -8,11 -9,19 -2,7 -8,12 -17,15 -4,13 -8,21 -14,23 -6,2 -14,8 -24,18 -10,10 -25,22 -44,36 -19,14 -32,24 -39,32 -7,7 -11,11 -14,11 -1,0 -4,-1 -7,-3 -4,-2 -6,-4 -7,-4 -4,0 -6,4 -7,13l-4 9c-8,5 -12,7 -14,7l-6 -2 -3 0c-7,0 -11,2 -11,8l6 9 0 2c0,8 -5,13 -15,13 -6,0 -26,11 -58,33l-27 6 -22 12c-7,-4 -12,-7 -14,-7l-15 5 -26 2c-1,0 -11,-6 -33,-18 -21,-12 -34,-24 -38,-36 -4,-12 -10,-24 -16,-36 -7,-12 -10,-21 -10,-26 0,-29 2,-50 7,-62 5,-13 8,-22 9,-28 1,-6 5,-12 11,-19 6,-7 11,-18 14,-34 17,-35 29,-56 36,-64 6,-8 12,-17 15,-29l12 -16c1,-1 3,-6 5,-14 2,-8 6,-13 9,-14 5,-8 7,-14 7,-16 0,-17 -8,-26 -23,-26 -3,0 -7,3 -10,10 -3,7 -12,13 -25,19 -13,6 -21,11 -24,14 -3,3 -9,7 -19,11 -10,5 -19,12 -26,21l-15 7c-5,11 -9,18 -13,19 -4,1 -15,4 -33,9 -1,1 -4,4 -9,11 -5,7 -12,10 -21,10 -7,7 -14,16 -22,26 -2,0 -9,2 -19,7l-18 5c-5,4 -10,9 -16,17 -6,8 -16,12 -32,12 -9,0 -14,-7 -14,-22 0,-30 11,-54 31,-71 21,-18 36,-27 45,-28 10,-1 16,-5 18,-11 2,-6 8,-11 18,-15 9,-4 20,-13 32,-26 12,-14 26,-23 40,-28l11 -13zm966 346l-43 37c-2,-2 -5,-3 -7,-3 -6,0 -14,5 -22,16 -9,11 -15,16 -19,16l-9 -2c-15,11 -26,18 -33,20 -6,2 -15,5 -24,10 -9,5 -18,7 -25,8 -7,1 -14,3 -19,8 -5,5 -16,7 -35,7l-15 -2c-8,4 -13,6 -15,6 -5,0 -10,-3 -15,-8 -5,-5 -11,-8 -18,-9 -6,-1 -13,-5 -19,-13 -6,-8 -13,-13 -19,-16 -6,-3 -11,-7 -14,-13l-13 -11c-11,-7 -20,-20 -30,-40 -10,-19 -15,-34 -15,-45l0 -4 2 -17 -2 -20c2,-2 6,-8 9,-15l0 -29 22 -72c1,-3 -1,-7 -7,-12 -6,9 -12,15 -18,16 -6,2 -10,6 -12,13 -2,6 -6,10 -11,10l-11 -4c-1,1 -4,7 -8,19 -4,11 -11,17 -21,17 -11,0 -16,-4 -16,-13l2 -16 -5 -23c0,-5 5,-14 15,-28 10,-14 19,-22 27,-24 8,-2 15,-8 21,-17 6,-9 18,-21 38,-34 11,-2 20,-10 28,-23 8,-7 19,-12 33,-16 14,-4 24,-10 31,-19 7,-8 28,-21 62,-38 34,-17 59,-26 75,-26 5,0 11,-2 20,-4 8,-3 16,-5 24,-7 7,-2 15,-5 23,-10 8,-5 14,-7 19,-7l26 9c19,6 31,10 35,12 1,1 7,4 19,8 11,4 23,9 35,16 12,6 18,19 18,37 -11,15 -15,23 -15,24 0,2 7,6 21,11 5,9 12,21 22,35l10 32 2 74 -2 7c-7,6 -10,10 -10,12l3 18 -7 25c-2,8 -5,13 -9,15 -4,2 -7,6 -8,9l-6 7c-1,2 -4,7 -8,16 -4,9 -8,15 -13,20 -5,5 -8,11 -9,17 -1,6 -4,11 -9,15 -5,3 -8,6 -10,9 -2,3 -6,6 -11,9zm-282 23l4 21 2 2 15 0 5 2c12,2 21,4 27,4 19,0 33,-5 45,-14 11,-9 20,-14 27,-14 7,0 12,-5 17,-14 5,-9 7,-14 9,-14l13 0 3 -2c0,-14 6,-24 19,-30 12,-6 21,-14 26,-24 5,-10 11,-18 18,-23 7,-5 11,-12 14,-20l7 -11c2,-2 3,-7 3,-14l17 -32c4,-15 5,-27 5,-35 0,-13 -7,-23 -20,-30 -13,-7 -19,-21 -19,-43 0,-14 7,-27 21,-38 14,-12 21,-19 21,-21 0,-4 -2,-6 -5,-6 -2,0 -9,2 -21,7 -4,8 -26,20 -64,33 -12,-6 -19,-9 -21,-9 -3,0 -7,4 -11,11 -4,7 -7,12 -11,15l-12 0c-1,0 -5,4 -12,12 -7,8 -15,12 -25,12l-11 11c1,10 -6,20 -18,30l-10 12c-6,7 -14,16 -24,25l-16 41c-6,16 -10,28 -10,35 -2,4 -6,7 -12,11 -6,4 -10,9 -10,15 0,1 2,4 6,9 4,5 6,9 6,11l-4 12 -3 33 9 29zm844 -848c18,0 35,8 52,24 17,16 26,32 26,48 0,2 -2,6 -6,11 -3,4 -8,14 -14,27 -5,14 -20,20 -44,20 -22,0 -39,-11 -50,-33 -11,-22 -17,-36 -17,-42 0,-2 1,-6 2,-11 1,-5 2,-13 3,-22 1,-10 6,-15 18,-15l20 -4c1,-1 4,-2 9,-2zm-202 711l0 -4c0,-3 2,-8 5,-14l21 -46c1,-5 2,-8 4,-11 2,-2 3,-8 3,-17l7 -24c1,-2 2,-8 2,-17l9 -33 -2 -18c-24,13 -42,26 -55,37l-18 9c-3,2 -7,10 -14,23l-16 11c-12,11 -17,18 -17,21 0,6 -7,12 -22,19 -15,6 -23,15 -25,28l0 4c-6,6 -12,9 -18,9 -9,0 -18,-5 -27,-14 -9,-10 -14,-18 -14,-25 0,-21 2,-34 7,-38 5,-4 10,-10 15,-17 5,-7 16,-15 34,-23 15,-18 26,-30 36,-34 9,-5 21,-16 35,-35 35,-26 63,-45 84,-55 1,0 6,-6 15,-17 9,-11 27,-25 54,-41l11 -13c5,-6 13,-9 24,-9 16,0 31,9 45,27 14,18 21,36 21,55 0,11 -3,21 -9,30l-6 16c-2,18 -6,31 -11,41 -5,26 -8,49 -10,69 -8,12 -17,35 -24,69l-12 41c0,15 -4,28 -11,41 -7,13 -12,30 -14,51l-7 11 -2 15c0,3 -1,6 -3,7 -2,1 -5,7 -8,19 -4,11 -8,20 -11,26 -6,10 -9,29 -9,56l2 6c-5,1 -11,9 -18,24 -7,15 -10,24 -10,26 0,4 1,6 3,6l37 -11c13,-2 22,-4 28,-4 6,-1 12,-2 17,-4 5,-2 20,-5 46,-10 26,-4 44,-7 54,-7l18 2 45 -7c2,-1 6,-2 13,-2 33,0 60,9 79,28 19,19 29,41 29,67 0,31 -17,48 -51,50l-6 0 -13 2c-8,0 -16,-8 -24,-26 -8,-17 -16,-26 -24,-26l-14 2c-8,-4 -15,-6 -21,-6 -6,0 -11,-2 -16,-6 -5,-3 -13,-6 -23,-9 -10,-2 -23,-7 -38,-13 -20,5 -33,7 -39,7l-11 0 -43 13 -7 0 -16 -5c-8,8 -24,16 -48,24 -4,4 -6,11 -8,20 -2,10 -5,19 -11,26l-4 13c-2,6 -6,10 -11,13 -5,3 -7,6 -7,8 0,1 1,6 4,15l0 3c0,1 -1,3 -2,6l-2 10 0 9c0,2 -3,6 -8,11 -6,5 -12,14 -18,27l-3 3c-2,2 -4,5 -4,7l2 32c0,9 -5,14 -15,16 -7,16 -11,28 -13,36 -1,7 -4,14 -9,19l-34 59c0,7 -2,16 -7,28 -5,12 -8,20 -8,25 -4,4 -7,6 -11,9 -7,27 -12,41 -15,43 -3,2 -6,11 -10,26 -11,7 -18,18 -21,32 -3,14 -13,26 -28,37 -15,37 -40,73 -75,108 -35,35 -60,53 -75,53 -2,0 -6,-2 -11,-6 -11,0 -20,-5 -25,-15 -6,-10 -11,-17 -15,-22 -5,-5 -8,-9 -9,-14 -1,-5 -4,-11 -9,-17 -5,-7 -7,-13 -7,-20l-4 -42 2 -71c1,-1 3,-6 6,-15 14,-54 23,-84 27,-89 4,-6 6,-14 8,-25 5,-7 11,-18 18,-33 7,-15 11,-27 11,-35 1,-9 6,-16 15,-22 6,-17 15,-31 25,-41l9 -15c13,-18 25,-29 37,-32 17,-34 43,-69 78,-104 35,-35 61,-55 78,-61 3,-8 9,-14 15,-18 7,-4 13,-10 20,-17l17 -15c11,-35 19,-58 24,-70 5,-11 10,-26 13,-44 3,-18 8,-33 14,-45l2 -17c0,-1 3,-6 9,-15 6,-9 12,-29 17,-61 0,-6 2,-13 7,-21 5,-8 7,-13 7,-16l-3 -22zm-308 854l4 0c5,0 9,-1 14,-4l-8 -19c0,-9 5,-20 14,-34 9,-14 19,-31 27,-50 9,-19 18,-31 28,-35l-7 -13c5,-15 8,-26 9,-34l80 -199c12,-28 18,-46 17,-54 -15,11 -27,23 -36,35 0,1 -7,8 -21,20 -14,12 -27,21 -38,27l-43 59c-6,10 -13,16 -18,19 -21,36 -33,60 -38,73 -5,12 -9,20 -13,24l-9 23 -11 18 -2 23c-5,12 -9,20 -12,25 -3,4 -6,8 -7,10l4 41c-11,15 -16,27 -16,37l6 39c2,15 5,22 10,22 3,0 8,-4 14,-11 7,-7 13,-12 19,-14 6,-2 13,-4 19,-7 3,-9 8,-16 15,-22z"/>
     <path class="fil7" d="M8559 7991l19 -15c15,-1 23,-9 23,-23 1,-14 11,-26 30,-36l11 -15c9,-9 34,-21 75,-35 10,-6 17,-11 21,-16 1,-1 2,-2 4,-2l15 4c8,0 18,-2 30,-6 12,-4 24,-6 36,-6l38 -2c2,0 7,2 15,6 7,3 17,5 28,5 13,0 26,6 37,18 11,12 17,23 17,33 0,19 -10,38 -29,57 -19,19 -35,30 -46,32 -10,10 -18,17 -24,19 -5,3 -11,7 -17,13 -6,6 -11,9 -14,9 -2,0 -4,-1 -5,-2 -1,-2 -3,-2 -6,-2 -10,0 -20,12 -32,36l-16 -2c-10,6 -17,14 -20,22 -3,8 -10,12 -19,12 -23,23 -38,34 -45,34 -1,0 -6,-1 -13,-4 -5,6 -7,12 -7,19 0,7 -5,12 -15,13l-12 11 -9 -2 -18 19c-9,0 -19,3 -28,9 -1,7 -3,16 -5,28 -2,11 -4,17 -4,19 0,18 16,26 48,26l44 -6c11,0 22,-3 32,-9 10,-6 21,-9 32,-9 4,0 9,-1 16,-4l9 4c4,-9 12,-17 24,-24 11,-7 20,-11 27,-11l9 -5c2,-7 6,-12 11,-15l7 -6c5,-5 10,-7 14,-7l13 0 4 -2c7,-15 17,-25 30,-28 13,-3 21,-7 25,-13 3,-6 9,-10 18,-11 8,-1 15,-5 21,-12 6,-7 13,-13 21,-19 9,-6 15,-11 18,-13 3,-3 6,-5 8,-5 4,0 6,3 6,8 0,6 1,8 4,8 2,0 4,-1 4,-4 0,-2 -1,-6 -2,-9l0 -7c0,-9 5,-15 15,-18l41 -26c1,-13 5,-20 11,-22 6,-2 10,-5 13,-7 3,-3 6,-4 10,-4 8,0 12,5 12,14l-5 24 5 24c0,4 -3,9 -9,15 -6,6 -10,16 -13,29 -3,13 -7,20 -12,21l-6 0c-11,12 -19,18 -26,20 -6,2 -11,6 -15,11l-31 35c-6,6 -11,11 -15,16 -4,5 -7,7 -10,7l-7 -7c0,-1 -1,-2 -4,-2 -6,0 -10,3 -11,11 -2,7 -5,14 -9,19 -18,9 -30,16 -35,24l-6 2 -16 0c-8,0 -13,6 -16,18 -3,12 -12,19 -26,20 -14,2 -24,6 -30,11 -1,1 -4,2 -8,4 -4,1 -13,6 -25,15l-76 27c-6,3 -10,5 -12,5l-25 4c-4,0 -7,-2 -11,-7 -4,-5 -6,-7 -7,-7l-16 5c-12,4 -24,6 -34,6 -6,0 -13,-2 -20,-7 -7,-4 -13,-7 -17,-9 -18,0 -30,-14 -37,-41l-11 2c-2,0 -11,-21 -24,-64 -4,-5 -10,-8 -17,-11 -8,-2 -12,-8 -12,-18 0,-27 6,-45 18,-55 12,-9 18,-16 19,-21l13 -47c2,-2 6,-8 9,-18l21 -38c2,-4 8,-15 16,-32zm190 -54l-11 6c-2,1 -10,6 -21,16 -12,9 -23,17 -34,23 -11,6 -23,21 -35,45 -12,24 -18,38 -18,41 0,4 2,6 6,6l31 -14c11,-6 22,-12 32,-21 10,-9 24,-19 43,-31l7 -7c1,-2 7,-7 17,-13 10,-6 17,-13 22,-19l9 -4c10,-16 21,-26 31,-30 11,-3 16,-7 16,-11 0,-7 -6,-11 -17,-11 -5,0 -12,3 -22,9l-21 0c-2,0 -9,4 -20,11l-15 4zm548 -394l13 -4 9 -9 2 0 8 4 2 0c15,0 28,-3 39,-9 11,-6 21,-10 28,-12 7,-2 12,-4 14,-5 2,-1 3,-2 5,-2l15 2c5,0 11,-9 19,-26 8,-17 17,-30 28,-37 10,-8 20,-23 31,-45 2,-3 5,-8 8,-14 3,-7 5,-10 7,-10 9,0 16,-6 22,-17 18,-21 33,-32 45,-32 15,0 26,15 32,44l9 34c0,1 -1,5 -4,13 -3,8 -4,16 -4,24 0,8 0,14 -1,16 -1,3 -2,6 -2,10 0,5 5,7 15,7 4,0 10,-2 20,-7l5 -2c6,4 11,6 15,6 1,0 10,-3 26,-9 16,-6 26,-9 31,-10 4,-1 11,-3 22,-7l11 0 7 2c2,0 7,-2 15,-7 7,-5 22,-8 43,-10l13 -6 4 0c20,0 30,9 30,26 0,4 -3,10 -8,19 -6,9 -11,19 -14,31l-42 53c-14,18 -28,27 -41,27 -2,0 -10,-8 -23,-24 0,-1 -1,-2 -3,-2 -6,0 -12,1 -19,4 -6,2 -12,4 -16,4 -2,0 -18,4 -48,13l-22 4c-2,0 -8,1 -17,4l-46 9c-16,8 -28,23 -37,45 0,1 -3,4 -9,8l-41 74c-13,4 -22,11 -26,24l-3 6c-7,1 -13,5 -18,11 -6,6 -11,11 -15,15l-16 24c-7,8 -13,18 -20,28 -7,10 -11,21 -15,32 -3,11 -5,18 -7,19 -2,2 -3,5 -3,10l-3 7c-7,7 -11,15 -11,25l4 14c-9,29 -13,45 -13,46 0,1 1,4 2,10l0 6c0,13 -5,30 -15,50l2 15 -6 41c0,6 2,15 6,30 -2,2 -4,4 -4,6 0,17 9,35 27,56 18,20 27,52 27,95 0,4 -1,9 -3,16 -2,7 -3,15 -4,23 -1,8 -5,16 -14,24 -9,8 -16,12 -22,12 -32,0 -56,-23 -71,-70 -16,-46 -24,-76 -24,-90l2 -35 -5 -18 5 -79 -4 -19 21 -78 0 -28c0,-1 4,-6 13,-15 0,-1 -1,-2 -4,-2 -4,0 -8,4 -15,11 -6,7 -14,14 -23,21l-7 13c-1,-1 -4,-2 -7,-4 -3,1 -13,15 -30,43 -13,2 -23,9 -30,22 -7,13 -17,19 -30,19l-4 2c-2,17 -11,26 -25,26l-3 2c-9,20 -19,30 -28,30 -6,18 -21,31 -45,37 -3,7 -9,13 -16,16 -7,4 -12,7 -15,10 -3,3 -6,5 -8,5 -8,0 -12,-8 -12,-25 0,-5 2,-10 6,-16 4,-6 6,-10 6,-12 0,-1 -3,-5 -9,-11 0,-19 5,-31 15,-35 10,-5 17,-12 22,-21 3,-7 9,-12 18,-15 9,-3 13,-7 13,-12 0,-4 8,-13 24,-25 15,-13 27,-24 34,-33 7,-9 13,-14 18,-14l4 -4c1,-15 7,-23 17,-23l9 -6 2 -7 5 -4 7 0 4 -3c1,-15 8,-27 21,-36 13,-8 37,-32 71,-71 34,-39 54,-64 58,-75 4,-11 12,-25 23,-44 11,-18 17,-36 19,-52 -1,-2 -3,-5 -6,-7l-39 19c0,-2 -6,-5 -18,-8 -9,5 -16,11 -20,16 -4,6 -7,8 -10,8l-13 -2 -40 4c-36,3 -62,11 -81,22l-37 11 -8 0c-5,0 -12,3 -22,9l-21 -2c-19,11 -33,15 -43,15 -1,0 -5,-1 -11,-2l-93 25c-7,2 -23,15 -49,37l-7 2c-6,0 -13,-7 -21,-20 -8,-14 -12,-26 -12,-36 0,-60 51,-95 154,-104l37 -15 2 0 10 4 3 0c4,0 10,-2 17,-7 8,-5 25,-10 53,-17l37 -10 12 2c6,0 13,-2 20,-7 8,-5 19,-8 34,-11 15,-2 26,-4 32,-7l15 -4c2,0 7,-2 15,-6 7,-4 17,-6 29,-6 2,0 6,1 14,4zm723 724l-43 37c-2,-2 -5,-3 -7,-3 -6,0 -14,5 -22,16 -9,11 -15,16 -19,16l-9 -2c-15,11 -26,18 -33,20 -6,2 -15,5 -24,10 -9,5 -18,7 -25,8 -7,1 -14,3 -19,8 -5,5 -16,7 -35,7l-15 -2c-8,4 -13,6 -15,6 -5,0 -10,-3 -15,-8 -5,-5 -11,-8 -18,-9 -6,-1 -13,-5 -19,-13 -6,-8 -13,-13 -19,-16 -6,-3 -11,-7 -14,-13l-13 -11c-11,-7 -20,-20 -30,-40 -10,-19 -15,-34 -15,-45l0 -4 2 -17 -2 -20c2,-2 6,-8 9,-15l0 -29 22 -72c1,-3 -1,-7 -7,-12 -6,9 -12,15 -18,16 -6,2 -10,6 -12,13 -2,6 -6,10 -11,10l-11 -4c-1,1 -4,7 -8,19 -4,11 -11,17 -21,17 -11,0 -16,-4 -16,-13l2 -16 -5 -23c0,-5 5,-14 15,-28 10,-14 19,-22 27,-24 8,-2 15,-8 21,-17 6,-9 18,-21 38,-34 11,-2 20,-10 28,-23 8,-7 19,-12 33,-16 14,-4 24,-10 31,-19 7,-8 28,-21 62,-38 34,-17 59,-26 75,-26 5,0 11,-2 20,-4 8,-3 16,-5 24,-7 7,-2 15,-5 23,-10 8,-5 14,-7 19,-7l26 9c19,6 31,10 35,12 1,1 7,4 19,8 11,4 23,9 35,16 12,6 18,19 18,37 -11,15 -15,23 -15,24 0,2 7,6 21,11 5,9 12,21 22,35l10 32 2 74 -2 7c-7,6 -10,10 -10,12l3 18 -7 25c-2,8 -5,13 -9,15 -4,2 -7,6 -8,9l-6 7c-1,2 -4,7 -8,16 -4,9 -8,15 -13,20 -5,5 -8,11 -9,17 -1,6 -4,11 -9,15 -5,3 -8,6 -10,9 -2,3 -6,6 -11,9zm-282 23l4 21 2 2 15 0 5 2c12,2 21,4 27,4 19,0 33,-5 45,-14 11,-9 20,-14 27,-14 7,0 12,-5 17,-14 5,-9 7,-14 9,-14l13 0 3 -2c0,-14 6,-24 19,-30 12,-6 21,-14 26,-24 5,-10 11,-18 18,-23 7,-5 11,-12 14,-20l7 -11c2,-2 3,-7 3,-14l17 -32c4,-15 5,-27 5,-35 0,-13 -7,-23 -20,-30 -13,-7 -19,-21 -19,-43 0,-14 7,-27 21,-38 14,-12 21,-19 21,-21 0,-4 -2,-6 -5,-6 -2,0 -9,2 -21,7 -4,8 -26,20 -64,33 -12,-6 -19,-9 -21,-9 -3,0 -7,4 -11,11 -4,7 -7,12 -11,15l-12 0c-1,0 -5,4 -12,12 -7,8 -15,12 -25,12l-11 11c1,10 -6,20 -18,30l-10 12c-6,7 -14,16 -24,25l-16 41c-6,16 -10,28 -10,35 -2,4 -6,7 -12,11 -6,4 -10,9 -10,15 0,1 2,4 6,9 4,5 6,9 6,11l-4 12 -3 33 9 29z"/>
    </g>
   </g>
   <g>
    <path class="fil8" d="M4194 9218c0,465 -376,842 -840,842 -464,0 -840,-377 -840,-842 0,-465 376,-842 840,-842 464,0 840,377 840,842z"/>
    <path class="fil9" d="M2458 4318c0,245 -198,443 -442,443 -244,0 -442,-198 -442,-443 0,-245 198,-443 442,-443 244,0 442,198 442,443z"/>
    <g style="clip-path:url(#id9)">
     <g>
      <g>
       <path id="1" class="fil1" d="M1885 4367c-17,14 -23,35 -14,46 9,11 31,8 48,-6 17,-14 23,-35 14,-46 -9,-11 -31,-8 -48,6zm90 134c-19,12 -25,37 -14,56 12,19 37,25 56,14 19,-12 25,-37 14,-56 -12,-19 -37,-25 -56,-14zm97 -42c-19,12 -25,37 -14,56 12,19 37,25 56,14 19,-12 25,-37 14,-56 -12,-19 -37,-25 -56,-14zm71 -82c-19,12 -25,37 -14,56 12,19 37,25 56,14 19,-12 25,-37 14,-56 -12,-19 -37,-25 -56,-14zm-4 -101c-19,12 -25,37 -14,56 12,19 37,25 56,14 19,-12 25,-37 14,-56 -12,-19 -37,-25 -56,-14zm-57 -85c230,33 222,317 -12,402 -24,9 -40,14 -57,17 -41,8 -87,6 -126,-10 -11,-5 -22,-10 -30,-19 -3,-4 -6,-7 -6,-12 0,-4 1,-7 2,-9 2,-2 4,-4 6,-6 5,-4 12,-8 19,-11 5,-3 10,-5 15,-7 13,-6 35,-20 25,-38 -8,-15 -29,-14 -43,-16 -8,0 -16,-1 -24,-1 -20,-1 -35,-1 -53,-11 -9,-5 -14,-8 -17,-12 -6,-7 -9,-16 -10,-25 -2,-18 1,-32 5,-46 6,-20 15,-36 25,-51 21,-31 44,-57 74,-80 59,-45 130,-76 206,-65z"/>
       <path class="fil1" d="M1756 4284c-3,9 -7,17 -13,24 -16,18 -29,10 -50,11 -7,0 -15,2 -22,5 3,-34 34,-74 69,-61l16 22z"/>
       <path class="fil1" d="M2062 4058c-51,43 -100,89 -153,128 -49,36 -101,68 -153,98 -6,-8 -10,-14 -16,-22 45,-40 89,-84 138,-119 53,-40 111,-72 169,-107 9,4 16,14 16,22z"/>
      </g>
     </g>
    </g>
    <path class="fil3" d="M2458 4318c0,245 -198,443 -442,443 -244,0 -442,-198 -442,-443 0,-245 198,-443 442,-443 244,0 442,198 442,443z"/>
    <path class="fil10" d="M3180 3765c0,334 -270,605 -603,605 -333,0 -603,-271 -603,-605 0,-334 270,-605 603,-605 333,0 603,271 603,605z"/>
    <g style="clip-path:url(#id10)">
     <g>
      <g>
       <path id="1" class="fil1" d="M2739 3494l0 245 137 0 0 -198c0,-26 -21,-46 -46,-46l-90 0zm-152 0l0 245 136 0 0 -245 -136 0zm-152 0l0 245 136 0 0 -245 -136 0zm-106 0c-26,0 -46,21 -46,46l0 198 136 0 0 -245 -90 0zm14 -52l474 0c54,0 97,44 97,97l0 277 0 108 0 9 -1 0c-4,30 -30,53 -61,53 -4,-53 -48,-94 -102,-94 -54,0 -98,41 -102,94l-234 0c-4,-53 -48,-94 -102,-94 -54,0 -97,41 -102,93 -41,-4 -76,-28 -95,-62 -1,0 -3,0 -4,0 -28,0 -51,-27 -51,-61 0,-33 23,-61 51,-61 1,0 3,0 4,0 21,-37 61,-63 107,-63l23 0 0 -200c0,-54 44,-97 97,-97z"/>
       <path class="fil1" d="M2311 3955c-22,0 -40,18 -40,40 0,22 18,40 40,40 22,0 40,-18 40,-40 0,-22 -18,-40 -40,-40zm0 -52c51,0 92,41 92,92 0,51 -41,92 -92,92 -51,0 -92,-41 -92,-92 0,-51 41,-92 92,-92z"/>
       <path class="fil1" d="M2749 3955c-22,0 -40,18 -40,40 0,22 18,40 40,40 22,0 40,-18 40,-40 0,-22 -18,-40 -40,-40zm0 -52c51,0 92,41 92,92 0,51 -41,92 -92,92 -51,0 -92,-41 -92,-92 0,-51 41,-92 92,-92z"/>
      </g>
     </g>
    </g>
    <path class="fil3" d="M3180 3765c0,334 -270,605 -603,605 -333,0 -603,-271 -603,-605 0,-334 270,-605 603,-605 333,0 603,271 603,605z"/>
    <path class="fil11" d="M4605 3661c0,504 -407,912 -910,912 -503,0 -910,-408 -910,-912 0,-504 407,-912 910,-912 503,0 910,408 910,912z"/>
    <g style="clip-path:url(#id11)">
     <g>
      <path id="1" class="fil1" d="M3523 3639l344 0c-2,-11 -5,-22 -9,-33l-326 0c-4,11 -7,22 -9,33zm2 97l340 0c3,-10 5,-20 5,-30l-351 0c1,10 3,20 5,30zm170 189c6,-5 12,-9 17,-14 45,-36 87,-70 116,-107l-268 0c30,38 72,71 116,107 6,5 12,9 17,14zm129 231l-257 0c-6,11 -11,22 -16,33l290 0c-5,-11 -10,-22 -16,-33zm-129 -149c-29,25 -57,51 -82,82l164 0c-25,-30 -53,-57 -82,-82zm65 -784l-130 0c20,30 42,57 65,82 23,-25 45,-52 65,-82zm53 -101l-235 0c4,11 9,22 14,33l207 0c5,-11 10,-22 14,-33zm-161 228c-80,-88 -154,-194 -168,-360 -1,-17 11,-33 29,-34 17,-1 33,11 34,29 2,25 6,48 11,70l276 0c5,-22 9,-45 11,-70 1,-17 17,-30 34,-29 17,1 30,17 29,34 -15,166 -88,272 -168,360 8,8 15,16 23,23 97,98 184,185 172,337 -9,111 -90,177 -182,250l-8 6c96,83 184,187 190,368 1,17 -13,32 -30,32 -17,1 -32,-13 -32,-30 -1,-29 -4,-55 -10,-80l-333 0c-6,25 -9,51 -10,80 -1,17 -15,31 -32,30 -17,-1 -31,-15 -30,-32 6,-181 94,-285 190,-368l-8 -6c-91,-73 -173,-139 -182,-250 -12,-152 75,-239 172,-337 8,-8 15,-15 23,-23zm-85 188l257 0c-28,-42 -66,-80 -107,-121 -7,-7 -15,-15 -22,-22 -7,7 -15,15 -22,22 -40,40 -78,79 -107,121z"/>
     </g>
    </g>
    <path class="fil3" d="M4605 3661c0,504 -407,912 -910,912 -503,0 -910,-408 -910,-912 0,-504 407,-912 910,-912 503,0 910,408 910,912z"/>
    <path class="fil12" d="M5455 3958c0,375 -303,679 -677,679 -374,0 -677,-304 -677,-679 0,-375 303,-679 677,-679 374,0 677,304 677,679z"/>
    <g style="clip-path:url(#id12)">
     <g>
      <g>
       <g>
        <g>
         <g>
          <polygon id="1" class="fil4" points="4733,4008 4693,4115 4645,4115 4605,4008 4605,3574 4733,3574 "/>
          <path class="fil4" d="M4733 3568c0,35 -28,63 -63,63l-2 0c-35,0 -63,-28 -63,-63l0 -59c0,-35 28,-28 63,-28l2 0c35,0 63,-7 63,28l0 59z"/>
          <polygon class="fil4" points="4740,3674 4598,3674 4598,3539 4740,3539 "/>
         </g>
         <path class="fil4" d="M4644 4112c0,0 12,36 17,46 5,10 12,18 31,-43 0,0 -20,-18 -49,-3z"/>
        </g>
       </g>
       <g>
        <g>
         <g>
          <g>
           <polygon class="fil4" points="4925,4008 4885,4115 4838,4115 4797,4008 4797,3574 4925,3574 "/>
           <path class="fil4" d="M4925 3568c0,35 -28,63 -63,63l-2 0c-35,0 -63,-28 -63,-63l0 -59c0,-35 28,-28 63,-28l2 0c35,0 63,-7 63,28l0 59z"/>
           <polygon class="fil4" points="4932,3674 4790,3674 4790,3539 4932,3539 "/>
          </g>
          <path class="fil4" d="M4836 4112c0,0 12,36 17,46 5,10 12,18 31,-43 0,0 -20,-18 -49,-3z"/>
         </g>
         <path class="fil4" d="M4918 3565c0,0 35,17 37,30 3,12 2,227 2,227 0,0 5,16 -14,16l0 -178 -14 -20 -12 -75 1 1z"/>
        </g>
       </g>
      </g>
     </g>
    </g>
    <path class="fil3" d="M5455 3958c0,375 -303,679 -677,679 -374,0 -677,-304 -677,-679 0,-375 303,-679 677,-679 374,0 677,304 677,679z"/>
    <path class="fil13" d="M5916 4820c0,416 -336,752 -751,752 -415,0 -751,-337 -751,-752 0,-416 336,-752 751,-752 415,0 751,337 751,752z"/>
    <g style="clip-path:url(#id13)">
     <g>
      <g>
       <path id="1" class="fil1" d="M4724 4978l0 87 -169 0 0 -87c8,-6 14,-16 18,-32 2,-8 3,-15 5,-23l65 -348 218 0 72 356c2,11 5,21 7,27 5,11 11,18 18,21l0 87 -193 0 0 -87c12,-5 18,-14 18,-27 0,-3 -1,-8 -2,-14l-74 0c-2,6 -2,11 -2,14 0,15 7,23 20,27zm-8 -137l50 0 -25 -145 -25 145z"/>
       <path class="fil1" d="M5166 4857l0 107 13 0c19,0 32,-4 39,-12 7,-8 11,-22 11,-42 0,-19 -4,-33 -11,-41 -7,-8 -21,-12 -39,-12l-13 0zm0 -180l0 88 10 0c18,0 31,-3 39,-9 8,-6 12,-18 12,-36 0,-17 -4,-29 -12,-35 -8,-6 -21,-9 -39,-9l-10 0zm57 389l-229 0 0 -87c8,-3 13,-8 15,-15 3,-6 4,-15 4,-24l0 -239c0,-10 -1,-19 -3,-25 -2,-6 -8,-11 -16,-14l0 -87 222 0c27,0 49,1 66,3 17,2 34,8 50,18 16,10 28,25 36,44 7,17 11,37 11,59 0,29 -6,53 -18,71 -12,18 -32,31 -59,39 29,4 51,18 66,40 13,20 19,45 19,77 0,23 -3,43 -9,61 -7,21 -18,38 -33,50 -15,12 -34,20 -57,25 -15,3 -36,4 -65,4z"/>
       <path class="fil1" d="M5627 4754l0 -29 0 -12c0,-16 -2,-27 -7,-32 -5,-6 -12,-9 -21,-9 -12,0 -20,5 -24,14 -3,6 -4,16 -4,29l0 11 0 189 0 13c0,16 2,27 7,33 5,6 12,9 21,9 12,0 20,-5 24,-14 3,-6 4,-16 4,-29l0 -12 0 -56 148 0 0 164c-20,16 -44,29 -74,38 -29,9 -60,14 -91,14 -34,0 -63,-3 -90,-10 -26,-7 -47,-17 -62,-31 -19,-17 -31,-40 -36,-67 -3,-15 -5,-41 -5,-78l0 -170c0,-27 2,-48 7,-63 6,-21 18,-39 35,-53 15,-13 36,-22 61,-28 26,-6 54,-9 84,-9 29,0 58,5 88,14 29,9 57,22 82,39l0 135 -148 0z"/>
      </g>
     </g>
    </g>
    <path class="fil3" d="M5916 4820c0,416 -336,752 -751,752 -415,0 -751,-337 -751,-752 0,-416 336,-752 751,-752 415,0 751,337 751,752z"/>
    <path class="fil14" d="M5335 5908c0,341 -276,618 -617,618 -341,0 -617,-277 -617,-618 0,-341 276,-618 617,-618 341,0 617,277 617,618z"/>
    <g style="clip-path:url(#id14)">
     <g>
      <path id="1" class="fil1" d="M4802 5680c-30,0 -54,24 -54,54 0,30 24,54 54,54 30,0 54,-24 54,-54 0,-30 -24,-54 -54,-54zm-38 430c-14,0 -26,12 -26,26 0,14 12,26 26,26 14,0 26,-12 26,-26 0,-14 -12,-26 -26,-26zm-308 158l259 0 0 -53c-33,7 -70,9 -53,-26l3 -6 -24 -7c-12,6 -30,7 -51,3 -36,-7 -65,-27 -65,-45 0,-18 29,-27 64,-20 36,7 65,27 65,45 0,2 0,5 -1,7l18 5c19,-42 37,-84 55,-125l-211 -56c-4,-1 -7,-6 -6,-10l5 -19c1,-4 6,-7 10,-6l264 69c4,1 7,6 6,10l-3 13c8,1 14,0 21,0 73,-1 101,-89 92,-139 -14,-73 -98,-47 -134,-57l-20 63c-3,9 -13,15 -23,12l-5 -2 -9 28c-2,5 -7,8 -13,7l-37 -12c-5,-2 -8,-7 -7,-13l9 -28 -5 -2c-9,-3 -15,-13 -12,-23l104 -330c3,-9 13,-15 23,-12l4 1 30 -94 -3 -1c-3,-1 -5,-5 -4,-8l5 -15c1,-3 5,-5 8,-4l62 19c3,1 5,5 4,8l-5 15c-1,3 -5,5 -8,4l-3 -1 -30 94 6 2c9,3 15,13 12,23l-13 43c11,2 22,11 32,19 165,139 125,406 -32,518l63 104 32 0c6,0 10,5 10,10l0 18c0,6 -5,10 -10,10l-477 0c-6,0 -10,-5 -10,-10l0 -18c0,-6 5,-10 10,-10z"/>
     </g>
    </g>
    <path class="fil3" d="M5335 5908c0,341 -276,618 -617,618 -341,0 -617,-277 -617,-618 0,-341 276,-618 617,-618 341,0 617,277 617,618z"/>
    <path class="fil8" d="M4469 6375c0,261 -211,473 -472,473 -261,0 -472,-212 -472,-473 0,-261 211,-473 472,-473 261,0 472,212 472,473z"/>
    <g style="clip-path:url(#id15)">
     <g>
      <path id="1" class="fil1" d="M4086 6442c10,21 20,46 32,64 34,49 60,96 81,152 1,3 3,17 3,17 0,18 3,16 4,25 0,1 1,6 0,6 -1,1 -5,1 -7,1 -2,0 -5,0 -6,-3 -1,-3 -3,-6 -3,-11 -1,-5 0,-20 1,-25 1,-4 0,-7 0,-10 -1,-4 -4,-11 -4,-12 -5,-10 -10,-26 -16,-38 -20,-45 -55,-89 -78,-132 -5,-10 -10,-20 -14,-29l-1 -1c0,2 0,3 0,4 0,0 -2,18 -3,21 -1,3 -7,16 -9,20 -1,4 -10,26 -10,26 0,0 -1,-4 -1,-6 0,-1 -4,-6 -4,-6 0,0 -3,-2 -5,-2 -1,0 -4,1 -6,6 -3,5 -5,7 -8,13 -3,5 -7,11 -7,11 -2,2 -3,4 -5,6 -2,-2 -2,-4 -3,-5 -2,-1 -1,-6 -6,0 -5,6 -9,10 -9,10 0,0 -4,3 -6,5 -1,1 -5,5 -5,5 0,0 0,-1 0,-2 0,-1 1,-3 -1,-1 -2,2 -3,2 -6,4 -3,2 -7,4 -8,6 -2,2 -4,4 -4,4l-1 -1c0,0 -1,-1 -1,0 -1,1 0,-1 -3,2 -3,3 -5,4 -6,5 -1,1 -4,3 -5,4 -1,1 -3,4 -3,4 0,1 -1,1 -1,2 0,0 0,-1 0,-1 0,-1 2,-7 2,-7l1 -6c0,-1 2,-5 2,-6 0,-1 2,-5 2,-6l2 -7c1,-1 1,-3 2,-4l1 -3 -1 -2 -2 1 -1 1c0,0 0,-2 0,-2 0,-1 1,-3 1,-4l2 -4c1,-1 1,-2 2,-3 1,-2 2,-3 3,-5 0,0 2,-4 2,-5 0,-1 2,-4 3,-5l5 -13 1 -7 1 -8 -5 -1c-2,0 -4,-1 -5,-1 0,0 -6,-1 -7,-1 -1,0 -6,1 -8,1 -1,0 -7,2 -9,2 -1,0 -7,3 -9,4 -1,1 -3,2 -5,3 -1,1 -4,2 -5,2 -1,0 -4,1 -5,1 0,0 -2,0 -3,0 -1,0 -4,0 -4,0l1 -2 1 -4 -1 -3 -2 -2 -8 2 -5 0c-1,0 -4,1 -4,1 -1,0 -5,1 -6,1 -1,0 -3,1 -4,1l-6 1 -1 -1c0,0 1,-2 1,-2 0,-1 0,-2 0,-2 0,-1 0,-1 -2,-1 -2,0 -3,1 -4,1 -1,1 -4,2 -5,2 -1,0 -5,1 -5,1l-2 0 -5 -1c-1,0 -6,2 -7,2 -1,0 -4,0 -5,1 -1,0 -3,0 -3,0 -1,0 -2,-1 -3,0 -1,0 -5,0 -6,0 -1,0 -5,-1 -4,-1 1,0 7,-2 7,-2 1,-1 2,-2 3,-4 1,-1 2,-1 3,-2l4 -3 0 -3c0,-1 0,-1 0,-2 0,0 2,-3 2,-4 1,-1 4,-4 4,-5 0,-1 3,-5 3,-5 0,-1 2,-5 3,-7 1,-2 4,-8 4,-8 0,0 -4,-3 -6,-3 -3,-1 -10,-5 -12,-6 -2,0 -7,-2 -10,-2 -3,1 -8,0 -9,-1 -1,0 -3,-2 -4,-3 0,-1 -3,-2 -6,-2 -3,0 -6,0 -7,0 -2,0 -2,-1 -2,-2l-3 -2c0,0 -5,0 -6,0 -1,0 -6,-1 -6,-1l-2 -1c0,0 4,-2 5,-3 0,-1 4,-4 5,-5 0,-1 2,-4 3,-6 1,-2 2,-4 1,-4 0,-1 -4,-4 -5,-4 -1,-1 -7,-4 -7,-5 0,-1 -5,-5 -7,-6 -2,-1 -6,-2 -6,-2 -1,0 -3,-2 -4,-2 -1,0 -4,-3 -4,-3l0 -1 3 -1 2 -2 1 -2 -1 -2 -2 -1c0,0 -4,-3 -6,-4 -2,-1 -6,-2 -6,-3 -1,-1 -4,-4 -4,-4 0,0 4,-2 3,-3 0,-1 -1,-3 -5,-4 -3,-1 -8,-3 -8,-3 0,0 -1,-2 -1,-3 0,-1 -3,-3 -5,-3 -2,0 -7,-2 -9,-4 -2,-1 -4,-3 -6,-4 -1,-1 -7,-4 -5,-4 2,0 8,0 9,0 1,0 14,1 14,1 3,0 5,0 8,0 2,0 3,0 5,0 0,-1 0,-1 0,-2 1,0 2,-1 4,-1 0,0 5,-1 7,-1 1,0 8,0 9,0 1,0 4,0 4,0l0 -2 -2 -4c0,0 1,-1 3,0 2,1 10,1 10,1 0,0 11,1 12,1 1,0 10,1 10,1 0,-1 2,-6 2,-6 0,-1 0,-3 -2,-4 -2,-1 -4,-2 -2,-2 2,0 12,2 12,2 0,0 15,4 18,5 2,0 16,3 17,3 1,0 2,-3 2,-3 1,-3 2,-6 3,-9 -1,-2 -1,-3 -2,-5 0,0 11,3 13,4 2,0 3,-2 3,-2 0,0 6,4 7,5 1,1 11,4 11,4 0,-1 0,-2 1,-3 0,0 6,3 7,4 1,1 20,13 22,13 2,0 12,3 15,3 3,1 15,2 15,2 0,0 2,-3 -3,-9 -5,-6 -12,-16 -16,-18 -4,-2 -11,-11 -14,-13 -4,-2 -14,-8 -16,-8 -2,-1 -12,-5 -14,-5 -1,0 -7,-4 -7,-4 -1,-1 -4,-2 -3,-3 1,0 6,-1 6,-2 0,-1 2,-2 0,-4 -1,-2 -5,-4 -6,-5 -1,-1 -4,-3 -4,-3 0,0 -11,-7 -12,-8 -1,-1 -6,-4 -6,-4 0,0 5,-2 5,-2 0,-1 0,-3 -1,-4 -2,0 -16,-12 -16,-12 0,0 -3,-1 -2,-2 0,-1 2,-2 0,-3 -2,-1 -6,-4 -6,-4 -1,0 -4,-5 -5,-6 0,-1 -3,-4 -2,-4 1,0 2,0 5,1 3,1 12,2 13,3 1,0 10,0 10,-1l5 -2c-1,-1 -1,-1 -2,-2 0,0 1,-1 2,-1 1,0 16,0 19,-1 3,0 4,-1 9,-2 4,-1 8,-3 8,-3 0,-1 -1,-6 -1,-9 -1,-3 -5,-14 -5,-15 -1,-1 -7,-12 -8,-13 -1,-1 -5,-8 -6,-8 0,-1 -2,-2 0,-2 2,0 2,-1 2,-2 -1,-1 -2,-3 -3,-4 -1,-1 -3,-6 -4,-6l-4 -8 -4 -6c7,1 13,2 20,1 2,0 6,-1 7,-3 0,-1 0,-5 0,-6 0,-1 -2,-12 -2,-13 0,-1 -3,-9 -3,-9 -1,-3 -2,-7 -3,-10 0,0 5,2 6,2 1,0 4,-1 3,-2 -1,-2 -1,-5 -2,-6 0,-2 -1,-6 -1,-6 0,0 -2,-4 -2,-4 0,-1 0,-5 0,-5 1,0 2,0 3,0 0,-1 0,-3 0,-4 -3,-10 -6,-19 -9,-29l0 -1c3,3 14,22 16,26 1,1 2,1 3,2 1,-1 1,-2 2,-2 0,0 3,3 3,3 0,1 2,5 2,5 0,0 3,4 4,5 1,1 3,4 4,5 1,2 3,-1 4,-1 1,-1 3,-6 3,-6 2,3 4,6 6,9 0,0 4,7 5,8 0,1 8,10 9,10 0,0 3,3 5,4 1,1 5,-2 6,-3 1,-1 7,-7 7,-7 2,-3 4,-6 5,-9l2 7 3 8c0,1 2,5 2,7 0,1 1,4 2,5 0,1 1,1 3,0 1,-1 1,1 2,1 0,1 2,8 3,10 5,11 5,17 13,28 2,3 6,7 6,7 0,1 4,-2 8,-4 4,-3 6,-3 7,-5 2,-2 5,-6 6,-6 0,-1 6,-7 7,-7 0,-1 2,-1 2,-1 0,1 0,2 1,3l5 -3c1,0 7,-7 7,-7 0,-1 5,-9 7,-12 1,-2 2,-4 2,-4 1,-1 1,3 1,4 0,1 1,7 1,7 0,1 -1,6 -1,7 0,2 2,1 3,2 1,1 0,3 0,3 0,0 0,19 -1,20 -1,1 1,3 2,3 1,0 5,-2 5,-2 0,0 -1,6 0,7 0,1 -1,14 -1,14 0,0 -1,4 -1,5 0,1 0,6 0,8 0,2 2,2 3,2 1,0 5,-3 5,-3 1,0 0,3 0,4 0,1 -1,7 -2,8 -1,1 -5,12 -5,14 -6,17 -1,23 -3,36 -1,4 2,15 4,23 1,8 5,9 5,9 0,0 6,-10 8,-13 2,-3 6,-12 7,-14 1,-2 5,-24 4,-25 0,-2 1,-8 1,-8 1,1 2,1 3,2 0,0 4,-9 4,-11 0,-1 1,-8 1,-8 0,0 2,0 3,-1 1,-2 6,-12 6,-12 1,2 2,3 2,5 3,1 6,2 8,4 0,0 2,1 3,0 1,-1 8,-13 9,-15 1,-2 8,-17 8,-17 0,0 5,-10 6,-11 1,-1 1,1 0,3 0,2 2,3 2,4 0,1 5,2 6,3 1,0 6,-8 6,-8l7 -10c0,0 5,-6 5,-8 0,-2 2,-2 2,-2l2 3 2 1c0,0 2,-2 3,-3 1,-1 5,-6 6,-7 1,-1 5,-5 5,-5 1,-1 2,-1 3,-2 1,0 1,1 2,1 1,-1 2,-3 3,-4 2,-2 4,-4 5,-6 0,0 8,-11 8,-12 0,-1 4,-6 5,-7 1,-1 0,5 0,7 0,2 0,5 0,7 0,2 -2,7 -3,9 -1,2 -1,5 -1,6 1,1 2,3 2,3 0,0 -1,5 -3,8 -1,3 -1,5 0,6 0,1 5,0 5,0 0,0 0,5 0,6 0,1 -1,4 -2,6 0,2 0,6 -1,7l0 3c0,1 0,2 0,2l3 1 3 -1 3 -2 1 1c0,0 0,4 -1,5 0,1 0,4 -1,4 0,1 -2,5 -2,6 -1,2 0,9 0,9 0,1 -1,7 -1,9 0,1 -1,6 0,7 0,1 3,1 4,2 2,0 5,1 6,2 1,1 6,0 7,0 1,0 4,-2 5,-2 1,0 0,2 -1,2 -1,0 -3,5 -3,5 -1,1 -3,4 -4,4 0,0 0,3 0,4 0,1 1,2 0,3 -1,1 -2,3 -4,6 -2,2 -3,5 -2,6 0,1 0,4 0,5 -1,1 -3,5 -5,7 -2,2 -4,7 -5,9 -1,2 -2,11 -3,13 -1,2 -2,7 -2,7 0,0 7,2 9,3 2,0 7,2 7,2 1,0 6,1 6,1 0,0 5,0 6,0 1,0 4,0 4,0l2 1 2 2 5 -1c1,0 2,-1 3,-1 2,0 3,0 5,0 0,0 5,-3 6,-3 1,-1 -2,3 -2,4 -1,1 -3,4 -4,4 -1,1 -1,2 -1,2 0,0 -2,2 -2,2 -1,0 -3,3 -3,3 -1,0 -5,4 -6,4l-2 5 -1 2c0,0 -3,3 -4,4 -1,0 -4,2 -5,2 -1,0 -2,1 -4,2 -1,1 -1,1 0,2 0,1 1,1 2,1 1,0 2,0 3,0l0 1 -4 4c0,0 -2,2 -3,2 -1,0 -4,3 -5,3l-4 2 -4 4 -7 5 0 2 1 3 3 1 2 0c0,0 -2,3 -2,3 -1,1 -2,2 -2,2 0,0 -3,2 -4,3 -1,0 -4,2 -5,2 -1,1 -3,1 -5,2 -1,1 -7,4 -9,5 -1,1 -6,4 -7,5 -1,1 -5,5 -6,5 -1,0 -4,5 -4,5 -1,2 -2,3 -3,5l-2 5 6 4 6 4 13 4c1,0 4,1 5,1 1,0 6,2 6,2 2,0 4,1 6,1 1,0 2,0 4,1l4 1c1,0 3,1 4,1 1,0 2,1 2,1 0,0 -1,0 -2,0 -1,0 -2,1 -2,1l1 2 3 1c1,0 3,1 4,1l7 3c1,0 5,1 6,2 1,0 5,2 6,2l6 3c0,0 6,3 6,3 1,0 1,1 1,1 -1,0 -1,0 -2,0 0,0 -4,0 -5,0 -1,0 -5,1 -6,1 -1,0 -4,1 -8,1 -4,0 -3,1 -4,1 -1,0 -1,1 -1,1l0 1c0,0 -4,0 -6,0 -3,0 -6,2 -10,3 -3,1 -4,1 -7,2 -3,0 0,1 1,1 1,0 1,1 1,1 0,0 -5,1 -7,1 -2,0 -7,1 -7,1 0,0 -5,1 -13,0 -8,0 -4,3 -4,4 -1,2 2,3 2,6 -3,0 -5,0 -8,-1 0,0 -7,-1 -13,-2 -6,-1 -9,-1 -15,-2 -6,-1 -8,1 -9,1 -1,1 -2,5 -2,5 0,0 2,6 2,7 1,1 3,5 3,5 0,0 -23,-7 -27,-9 -18,-7 -28,-16 -34,-23z"/>
     </g>
    </g>
    <path class="fil3" d="M4469 6375c0,261 -211,473 -472,473 -261,0 -472,-212 -472,-473 0,-261 211,-473 472,-473 261,0 472,212 472,473z"/>
    <path class="fil15" d="M4099 6960c0,319 -258,578 -577,578 -318,0 -577,-259 -577,-578 0,-319 258,-578 577,-578 318,0 577,259 577,578z"/>
    <g style="clip-path:url(#id16)">
     <g>
      <g>
       <path id="1" class="fil5" d="M3273 7304l129 0c45,-23 76,-71 76,-125 0,-62 -40,-115 -96,-134l0 -243 15 0c6,0 11,-5 11,-10l0 -4c0,-6 -5,-10 -11,-10l-121 0c-6,0 -10,5 -10,10l0 4c0,6 5,10 10,10l15 0 0 243c-56,19 -96,72 -96,134 0,55 31,102 76,125z"/>
       <path class="fil5" d="M3722 7063l53 84 68 108c3,5 5,11 4,16 0,5 -2,11 -6,16 -4,5 -9,9 -15,12 -6,3 -13,4 -20,4l-129 0 -129 0c-7,0 -14,-1 -20,-4 -6,-3 -11,-7 -15,-12 -4,-5 -6,-10 -6,-16 0,-5 1,-11 4,-16l68 -108 53 -84 0 -267 -15 0c-6,0 -10,-5 -10,-11l0 -6c0,-6 5,-10 10,-10l121 0c6,0 11,5 11,10l0 6c0,6 -5,11 -11,11l-15 0 0 267z"/>
       <path class="fil5" d="M3348 6635c22,0 39,17 39,39 0,22 -17,39 -39,39 -22,0 -39,-17 -39,-39 0,-22 17,-39 39,-39z"/>
       <path class="fil5" d="M3651 6663c22,0 39,17 39,39 0,22 -17,39 -39,39 -22,0 -39,-17 -39,-39 0,-22 17,-39 39,-39z"/>
       <path class="fil5" d="M3557 6616c22,0 39,17 39,39 0,22 -17,39 -39,39 -22,0 -39,-17 -39,-39 0,-22 17,-39 39,-39z"/>
       <path class="fil5" d="M3455 6686c22,0 39,17 39,39 0,22 -17,39 -39,39 -22,0 -39,-17 -39,-39 0,-22 17,-39 39,-39z"/>
      </g>
     </g>
    </g>
    <path class="fil3" d="M4099 6960c0,319 -258,578 -577,578 -318,0 -577,-259 -577,-578 0,-319 258,-578 577,-578 318,0 577,259 577,578z"/>
    <path class="fil16" d="M3803 7720c0,244 -198,442 -441,442 -244,0 -441,-198 -441,-442 0,-244 198,-442 441,-442 244,0 441,198 441,442z"/>
    <g style="clip-path:url(#id17)">
     <g>
      <g>
       <g>
        <path id="1" class="fil6" d="M3362 7338c-119,0 -215,96 -215,215 0,119 96,215 215,215 119,0 215,-96 215,-215 0,-119 -96,-215 -215,-215zm0 390l0 0c-97,0 -175,-78 -175,-175 0,-97 78,-175 175,-175 97,0 175,78 175,175 0,97 -78,175 -175,175z"/>
        <polygon class="fil6" points="3391,7955 3333,7955 3333,7746 3391,7746 "/>
        <path class="fil6" d="M3408 8056c0,26 -21,47 -47,47 -26,0 -47,-21 -47,-47l0 -198c0,-26 21,-47 47,-47 26,0 47,21 47,47l0 198z"/>
       </g>
      </g>
     </g>
    </g>
    <path class="fil3" d="M3803 7720c0,244 -198,442 -441,442 -244,0 -441,-198 -441,-442 0,-244 198,-442 441,-442 244,0 441,198 441,442z"/>
    <path class="fil17" d="M3757 9519c0,22 -5,64 -13,123 -9,65 -18,104 -25,116 -6,10 -15,15 -26,15 -5,0 -13,-1 -24,-2 -38,-5 -149,-8 -333,-8 -40,0 -100,0 -179,-1 -79,-1 -139,-1 -179,-1 -17,0 -26,-7 -26,-23 0,-59 3,-146 10,-263 6,-117 10,-205 10,-263 0,-60 -3,-170 -10,-333 -2,-42 -5,-104 -9,-187l-1 -11c-1,-12 6,-18 20,-18 39,0 97,1 175,3 78,2 135,3 174,3 38,0 96,-1 172,-3 77,-2 134,-3 172,-3 27,0 43,10 47,30 3,12 7,48 13,109 6,60 8,97 8,110 0,11 -5,16 -16,16 -3,0 -9,0 -16,-1 -139,-11 -264,-17 -375,-17 -28,0 -45,6 -51,20 -3,6 -4,26 -4,60 0,36 5,59 16,70 9,10 26,15 51,15 5,0 15,0 30,-1 15,-1 28,-1 38,-1 66,0 133,-2 200,-5 6,-1 20,-2 43,-4 18,-2 32,-3 42,-3 13,0 19,6 19,18 0,-11 -5,29 -14,120 -4,42 -6,83 -6,125 0,10 -7,16 -23,16 0,0 -24,-3 -71,-8 -30,-3 -98,-5 -204,-5l-83 0c-21,0 -34,5 -38,16 -1,2 -1,19 -1,49 0,40 3,65 8,77 9,20 43,32 100,35 -1,0 37,0 114,0 28,0 69,-2 123,-7 55,-5 95,-7 123,-7 12,0 17,9 17,28z"/>
    <path class="fil17" d="M5144 9670c0,51 -2,81 -7,91 -6,11 -24,17 -53,17 -5,0 -15,0 -32,0 -16,-1 -29,-1 -40,-1 -11,0 -27,-1 -48,-2 -21,-1 -37,-1 -47,-1 -9,0 -47,-49 -115,-147 -68,-98 -103,-147 -106,-148 -11,9 -48,60 -111,155 -61,91 -96,137 -107,141 -7,2 -27,3 -59,3 -107,0 -160,-6 -160,-17 0,-11 -1,-26 -2,-47 -1,-20 -2,-35 -2,-45 0,-65 4,-103 12,-114 1,-1 45,-57 134,-170 72,-91 108,-143 108,-156 0,-13 -36,-65 -108,-157 -46,-56 -91,-113 -136,-170 -5,-7 -7,-18 -9,-34 -1,-11 -1,-26 0,-45 1,-22 2,-35 2,-38 0,-10 -1,-27 -3,-49 -2,-22 -3,-38 -3,-48 0,-10 9,-15 27,-15 12,0 30,1 53,2 23,2 41,2 52,2 10,0 26,-1 46,-2 20,-1 35,-2 45,-2 8,0 47,49 115,149 68,99 104,149 107,149 10,-6 49,-58 114,-156 63,-94 99,-141 108,-141l187 0c18,0 28,5 28,13l0 191c0,13 -42,72 -126,176 -84,104 -126,159 -126,165 0,9 37,61 111,156 87,111 132,169 136,174 7,12 11,51 11,119zm1060 -575c0,126 -33,229 -99,307 -71,83 -169,125 -294,125 -21,0 -52,-1 -95,-3 -42,-2 -74,-3 -94,-3 -22,0 -34,10 -34,29 0,24 2,60 7,107 5,48 7,83 7,106 0,12 -5,18 -16,18 -32,0 -80,-1 -143,-3 -64,-2 -111,-3 -143,-3 -15,0 -23,-7 -23,-23 0,-58 1,-145 2,-261 2,-116 2,-203 2,-261 0,-164 -7,-336 -22,-517l-1 -11c-1,-10 7,-16 24,-18 41,-5 131,-8 270,-8 82,0 161,1 236,3 124,3 223,43 299,117 77,76 116,176 116,299zm-313 13c0,-122 -59,-183 -177,-183 -83,0 -127,5 -131,14 -3,7 -5,67 -5,181 0,16 1,40 2,72 1,32 2,56 2,72 0,10 47,16 141,16 113,0 170,-57 170,-172zm1222 424c0,22 -5,64 -13,123 -9,65 -18,104 -25,116 -6,10 -15,15 -26,15 -5,0 -13,-1 -24,-2 -38,-5 -149,-8 -333,-8 -40,0 -100,0 -179,-1 -79,-1 -139,-1 -179,-1 -17,0 -26,-7 -26,-23 0,-59 3,-146 10,-263 6,-117 10,-205 10,-263 0,-60 -3,-170 -10,-333 -2,-42 -5,-104 -9,-187l-1 -11c-1,-12 6,-18 20,-18 39,0 97,1 175,3 78,2 135,3 174,3 38,0 96,-1 172,-3 77,-2 134,-3 172,-3 27,0 43,10 47,30 3,12 7,48 13,109 6,60 8,97 8,110 0,11 -5,16 -16,16 -3,0 -9,0 -16,-1 -139,-11 -264,-17 -375,-17 -28,0 -45,6 -51,20 -3,6 -4,26 -4,60 0,36 5,59 16,70 9,10 26,15 51,15 5,0 15,0 30,-1 15,-1 28,-1 38,-1 66,0 133,-2 200,-5 6,-1 20,-2 43,-4 18,-2 32,-3 42,-3 13,0 19,6 19,18 0,-11 -5,29 -14,120 -4,42 -6,83 -6,125 0,10 -7,16 -23,16 0,0 -24,-3 -71,-8 -30,-3 -98,-5 -204,-5l-83 0c-21,0 -34,5 -38,16 -1,2 -1,19 -1,49 0,40 3,65 8,77 9,20 43,32 100,35 -1,0 37,0 114,0 28,0 69,-2 123,-7 55,-5 95,-7 123,-7 12,0 17,9 17,28z"/>
    <g>
     <path class="fil17" d="M5947 7212l7 -9c4,-6 10,-10 18,-11 8,-1 15,-3 23,-7l134 -37c13,-3 28,-6 47,-7l29 -9c8,-4 19,-5 33,-5l30 -6c2,0 5,2 7,7 2,5 3,7 4,7 28,-19 47,-28 54,-28l2 0 22 6c4,0 8,-2 12,-7l3 -3c13,6 21,9 22,9 9,0 19,-2 31,-6 11,-3 23,-5 33,-5l28 2 62 -4c4,0 8,2 12,6l18 -4c18,0 35,2 52,7 17,5 38,9 62,11 24,2 42,11 53,25l15 5 11 0c16,0 25,6 28,19 4,7 11,14 22,22l12 19c-1,4 -2,7 -2,11 0,3 7,8 20,13l4 2c1,9 7,19 17,31 11,12 16,34 16,66l0 22 4 47c0,32 -10,71 -28,116 -19,45 -39,77 -60,95 -5,16 -11,24 -17,24 -21,19 -35,29 -41,29 -1,0 -3,-1 -5,-2 -8,15 -21,27 -40,38 -18,11 -30,17 -36,19 -6,2 -19,7 -42,15l-22 -5c-9,8 -15,13 -19,13l-48 20c-41,11 -67,16 -80,16l-23 -7c-3,0 -9,5 -16,14l-17 4c-4,-4 -15,-6 -35,-8 -9,6 -15,8 -21,8l-40 5c-5,0 -8,-4 -9,-14l-8 3 -4 13c-2,1 -6,2 -9,2l-48 -5 -23 5 -37 -7 -18 2 -15 -7 -14 2 -15 -4 -17 4 -4 -2c-2,5 -5,9 -9,12 -4,3 -8,10 -15,19 -14,11 -23,25 -26,42 -4,16 -14,25 -32,27 -1,2 -3,6 -6,9 1,1 3,7 6,15l0 4c0,15 -12,29 -36,45 -3,22 -8,37 -13,47 -5,10 -9,18 -11,24 -2,6 -7,12 -15,16l-3 6 0 26c0,1 -2,5 -6,11 -4,6 -9,15 -15,28l-6 9 -7 30c-12,9 -18,20 -18,36l2 52c0,9 -6,19 -18,28 -12,10 -24,15 -35,15 -30,0 -50,-18 -61,-54l-6 -7c-13,-11 -19,-26 -19,-46 0,-23 12,-59 37,-106l60 -108c1,-1 8,-6 24,-16l10 3c2,-1 4,-3 4,-7 0,-1 -3,-10 -10,-26l0 -4c0,-5 2,-8 6,-9l7 -8 -2 -18c11,-16 17,-27 17,-32l9 -21c6,-14 11,-21 15,-22 0,-24 7,-42 22,-54l7 -15c2,-4 6,-6 12,-7 6,-1 9,-2 9,-3 0,-2 -1,-5 -3,-9 -2,-4 -3,-7 -3,-9 0,-6 3,-14 11,-23 7,-10 12,-15 15,-15l14 8 0 -6c-6,-5 -9,-10 -9,-14 0,-5 3,-11 8,-19 5,-8 9,-14 10,-18l7 -9c1,0 4,-8 9,-25 5,-17 12,-25 21,-24l0 -9c0,-6 7,-20 21,-43l48 -85c1,-6 6,-17 15,-32l-2 -22c0,-10 6,-25 17,-45 11,-21 20,-31 28,-31 4,0 6,1 8,2 2,1 3,2 4,2l15 -2 29 26c8,6 12,18 14,35l4 6c15,28 23,47 23,59 0,15 -2,25 -4,33 -3,7 -12,16 -28,27 -15,18 -24,33 -28,46 -3,13 -10,25 -19,37 -9,11 -16,28 -23,51 -7,22 -18,39 -35,50 -2,16 -4,30 -7,42l0 2c0,4 2,6 7,6l30 -4c4,0 8,1 13,3 5,2 10,3 15,3 5,0 11,-2 18,-7l6 0c2,0 10,3 23,9l4 -2c3,-6 7,-9 11,-9l35 3 17 -2c8,-5 21,-8 39,-9 18,-1 30,-2 37,-5 7,-3 13,-5 19,-6 5,-1 12,-3 21,-7 9,-4 16,-6 22,-6 14,0 33,-6 58,-19 8,2 13,3 15,3 11,0 21,-5 28,-15 7,-10 15,-15 24,-16l55 -24c5,-2 15,-12 32,-30l16 -11 11 -15c0,-1 6,-5 17,-11 -2,-1 -4,-3 -6,-5l20 -23c-1,-6 -2,-10 -2,-11l0 -3c6,-9 12,-16 19,-20 6,-4 10,-7 10,-8l-9 -11c9,-9 13,-14 13,-16l-3 -26 3 -46c0,-24 -1,-39 -4,-46 -3,-7 -5,-14 -6,-21 -11,-22 -28,-41 -48,-55 -2,-1 -3,-3 -3,-6l-2 -9 0 -4 -29 4c-1,0 -3,-3 -6,-9 -3,-6 -7,-9 -13,-9l-13 6 -2 0c-4,0 -15,-6 -32,-17 -4,-1 -11,-2 -23,-2l-13 -5c-3,-2 -6,-4 -9,-4l-6 0 -21 4 -46 -4 -28 -6c-11,7 -17,11 -20,11 -2,0 -8,-2 -17,-6l-2 0 -27 4c-9,1 -15,2 -21,3l-5 0c-20,0 -36,-2 -46,-5l-5 0c-7,0 -12,2 -16,7 -4,4 -8,7 -12,7 -2,0 -6,-4 -9,-12 -8,6 -14,10 -17,12l-16 -6c-2,5 -21,10 -55,15l-43 9 -7 -2c-14,5 -25,8 -34,10 -9,2 -17,4 -24,7 -7,3 -14,6 -22,7 -8,1 -19,4 -34,9l-15 -4c-11,6 -28,15 -50,23 -22,9 -36,16 -41,22 -6,6 -11,8 -15,8 -1,0 -5,-1 -11,-2l-2 0c-6,0 -14,6 -27,19 -12,12 -23,21 -32,27 -9,6 -17,14 -24,26 -7,12 -23,20 -48,26 -1,1 -2,3 -4,5l0 15c-10,6 -18,16 -26,32l-5 9 -2 17c0,18 -2,28 -7,29 -5,1 -10,4 -15,8 -5,4 -10,6 -15,6 -11,0 -20,-9 -29,-27 -9,-18 -14,-29 -14,-32 0,-36 12,-62 35,-79l67 -49c23,-16 41,-24 57,-24 5,-2 10,-8 15,-17 5,-9 18,-16 37,-20l15 6c1,0 3,-2 5,-7 2,-5 6,-9 11,-12 5,-3 10,-7 13,-12l24 -15c1,0 2,-1 4,-2l14 4c1,0 3,-1 5,-2 2,-1 7,-2 13,-2 2,0 4,-3 6,-9 2,-3 6,-5 10,-6zm823 618l13 -3 6 -12c29,-17 50,-34 63,-50 1,-2 4,-5 8,-7 4,-2 9,-7 13,-13 22,-23 49,-34 80,-34 36,0 55,22 58,66l6 14c5,8 11,26 20,52 9,26 13,42 13,48 0,16 -5,33 -15,49 -8,4 -29,27 -61,68l-9 7c-5,11 -11,22 -19,32 -12,4 -18,9 -18,14l0 16c0,1 -2,4 -4,7 -2,4 -6,11 -11,21l-7 11c-2,2 -5,7 -7,15 -2,8 -6,15 -11,20 -5,6 -7,11 -7,15 0,9 12,14 35,14 1,0 6,-2 14,-6l13 4c1,0 4,-2 9,-6 5,-4 12,-7 22,-10 10,-2 19,-6 26,-11 7,-5 17,-9 27,-13 11,-3 21,-10 30,-18 10,-8 19,-14 29,-18 9,-4 18,-9 26,-17 8,-7 17,-15 28,-21 11,-7 27,-21 49,-43 15,-11 24,-18 30,-19 1,0 6,-8 16,-24 9,-16 20,-24 32,-24 13,0 19,6 19,18 0,7 -3,13 -9,19l0 6 2 14c1,2 2,5 2,8 0,2 -2,6 -7,11 -4,5 -8,11 -9,19 -2,7 -8,12 -17,15 -4,13 -8,21 -14,23 -6,2 -14,8 -24,18 -10,10 -25,22 -44,36 -19,14 -32,24 -39,32 -7,7 -11,11 -14,11 -1,0 -4,-1 -7,-3 -4,-2 -6,-4 -7,-4 -4,0 -6,4 -7,13l-4 9c-8,5 -12,7 -14,7l-6 -2 -3 0c-7,0 -11,2 -11,8l6 9 0 2c0,8 -5,13 -15,13 -6,0 -26,11 -58,33l-27 6 -22 12c-7,-4 -12,-7 -14,-7l-15 5 -26 2c-1,0 -11,-6 -33,-18 -21,-12 -34,-24 -38,-36 -4,-12 -10,-24 -16,-36 -7,-12 -10,-21 -10,-26 0,-29 2,-50 7,-62 5,-13 8,-22 9,-28 1,-6 5,-12 11,-19 6,-7 11,-18 14,-34 17,-35 29,-56 36,-64 6,-8 12,-17 15,-29l12 -16c1,-1 3,-6 5,-14 2,-8 6,-13 9,-14 5,-8 7,-14 7,-16 0,-17 -8,-26 -23,-26 -3,0 -7,3 -10,10 -3,7 -12,13 -25,19 -13,6 -21,11 -24,14 -3,3 -9,7 -19,11 -10,5 -19,12 -26,21l-15 7c-5,11 -9,18 -13,19 -4,1 -15,4 -33,9 -1,1 -4,4 -9,11 -5,7 -12,10 -21,10 -7,7 -14,16 -22,26 -2,0 -9,2 -19,7l-18 5c-5,4 -10,9 -16,17 -6,8 -16,12 -32,12 -9,0 -14,-7 -14,-22 0,-30 11,-54 31,-71 21,-18 36,-27 45,-28 10,-1 16,-5 18,-11 2,-6 8,-11 18,-15 9,-4 20,-13 32,-26 12,-14 26,-23 40,-28l11 -13zm966 346l-43 37c-2,-2 -5,-3 -7,-3 -6,0 -14,5 -22,16 -9,11 -15,16 -19,16l-9 -2c-15,11 -26,18 -33,20 -6,2 -15,5 -24,10 -9,5 -18,7 -25,8 -7,1 -14,3 -19,8 -5,5 -16,7 -35,7l-15 -2c-8,4 -13,6 -15,6 -5,0 -10,-3 -15,-8 -5,-5 -11,-8 -18,-9 -6,-1 -13,-5 -19,-13 -6,-8 -13,-13 -19,-16 -6,-3 -11,-7 -14,-13l-13 -11c-11,-7 -20,-20 -30,-40 -10,-19 -15,-34 -15,-45l0 -4 2 -17 -2 -20c2,-2 6,-8 9,-15l0 -29 22 -72c1,-3 -1,-7 -7,-12 -6,9 -12,15 -18,16 -6,2 -10,6 -12,13 -2,6 -6,10 -11,10l-11 -4c-1,1 -4,7 -8,19 -4,11 -11,17 -21,17 -11,0 -16,-4 -16,-13l2 -16 -5 -23c0,-5 5,-14 15,-28 10,-14 19,-22 27,-24 8,-2 15,-8 21,-17 6,-9 18,-21 38,-34 11,-2 20,-10 28,-23 8,-7 19,-12 33,-16 14,-4 24,-10 31,-19 7,-8 28,-21 62,-38 34,-17 59,-26 75,-26 5,0 11,-2 20,-4 8,-3 16,-5 24,-7 7,-2 15,-5 23,-10 8,-5 14,-7 19,-7l26 9c19,6 31,10 35,12 1,1 7,4 19,8 11,4 23,9 35,16 12,6 18,19 18,37 -11,15 -15,23 -15,24 0,2 7,6 21,11 5,9 12,21 22,35l10 32 2 74 -2 7c-7,6 -10,10 -10,12l3 18 -7 25c-2,8 -5,13 -9,15 -4,2 -7,6 -8,9l-6 7c-1,2 -4,7 -8,16 -4,9 -8,15 -13,20 -5,5 -8,11 -9,17 -1,6 -4,11 -9,15 -5,3 -8,6 -10,9 -2,3 -6,6 -11,9zm-282 23l4 21 2 2 15 0 5 2c12,2 21,4 27,4 19,0 33,-5 45,-14 11,-9 20,-14 27,-14 7,0 12,-5 17,-14 5,-9 7,-14 9,-14l13 0 3 -2c0,-14 6,-24 19,-30 12,-6 21,-14 26,-24 5,-10 11,-18 18,-23 7,-5 11,-12 14,-20l7 -11c2,-2 3,-7 3,-14l17 -32c4,-15 5,-27 5,-35 0,-13 -7,-23 -20,-30 -13,-7 -19,-21 -19,-43 0,-14 7,-27 21,-38 14,-12 21,-19 21,-21 0,-4 -2,-6 -5,-6 -2,0 -9,2 -21,7 -4,8 -26,20 -64,33 -12,-6 -19,-9 -21,-9 -3,0 -7,4 -11,11 -4,7 -7,12 -11,15l-12 0c-1,0 -5,4 -12,12 -7,8 -15,12 -25,12l-11 11c1,10 -6,20 -18,30l-10 12c-6,7 -14,16 -24,25l-16 41c-6,16 -10,28 -10,35 -2,4 -6,7 -12,11 -6,4 -10,9 -10,15 0,1 2,4 6,9 4,5 6,9 6,11l-4 12 -3 33 9 29zm844 -848c18,0 35,8 52,24 17,16 26,32 26,48 0,2 -2,6 -6,11 -3,4 -8,14 -14,27 -5,14 -20,20 -44,20 -22,0 -39,-11 -50,-33 -11,-22 -17,-36 -17,-42 0,-2 1,-6 2,-11 1,-5 2,-13 3,-22 1,-10 6,-15 18,-15l20 -4c1,-1 4,-2 9,-2zm-202 711l0 -4c0,-3 2,-8 5,-14l21 -46c1,-5 2,-8 4,-11 2,-2 3,-8 3,-17l7 -24c1,-2 2,-8 2,-17l9 -33 -2 -18c-24,13 -42,26 -55,37l-18 9c-3,2 -7,10 -14,23l-16 11c-12,11 -17,18 -17,21 0,6 -7,12 -22,19 -15,6 -23,15 -25,28l0 4c-6,6 -12,9 -18,9 -9,0 -18,-5 -27,-14 -9,-10 -14,-18 -14,-25 0,-21 2,-34 7,-38 5,-4 10,-10 15,-17 5,-7 16,-15 34,-23 15,-18 26,-30 36,-34 9,-5 21,-16 35,-35 35,-26 63,-45 84,-55 1,0 6,-6 15,-17 9,-11 27,-25 54,-41l11 -13c5,-6 13,-9 24,-9 16,0 31,9 45,27 14,18 21,36 21,55 0,11 -3,21 -9,30l-6 16c-2,18 -6,31 -11,41 -5,26 -8,49 -10,69 -8,12 -17,35 -24,69l-12 41c0,15 -4,28 -11,41 -7,13 -12,30 -14,51l-7 11 -2 15c0,3 -1,6 -3,7 -2,1 -5,7 -8,19 -4,11 -8,20 -11,26 -6,10 -9,29 -9,56l2 6c-5,1 -11,9 -18,24 -7,15 -10,24 -10,26 0,4 1,6 3,6l37 -11c13,-2 22,-4 28,-4 6,-1 12,-2 17,-4 5,-2 20,-5 46,-10 26,-4 44,-7 54,-7l18 2 45 -7c2,-1 6,-2 13,-2 33,0 60,9 79,28 19,19 29,41 29,67 0,31 -17,48 -51,50l-6 0 -13 2c-8,0 -16,-8 -24,-26 -8,-17 -16,-26 -24,-26l-14 2c-8,-4 -15,-6 -21,-6 -6,0 -11,-2 -16,-6 -5,-3 -13,-6 -23,-9 -10,-2 -23,-7 -38,-13 -20,5 -33,7 -39,7l-11 0 -43 13 -7 0 -16 -5c-8,8 -24,16 -48,24 -4,4 -6,11 -8,20 -2,10 -5,19 -11,26l-4 13c-2,6 -6,10 -11,13 -5,3 -7,6 -7,8 0,1 1,6 4,15l0 3c0,1 -1,3 -2,6l-2 10 0 9c0,2 -3,6 -8,11 -6,5 -12,14 -18,27l-3 3c-2,2 -4,5 -4,7l2 32c0,9 -5,14 -15,16 -7,16 -11,28 -13,36 -1,7 -4,14 -9,19l-34 59c0,7 -2,16 -7,28 -5,12 -8,20 -8,25 -4,4 -7,6 -11,9 -7,27 -12,41 -15,43 -3,2 -6,11 -10,26 -11,7 -18,18 -21,32 -3,14 -13,26 -28,37 -15,37 -40,73 -75,108 -35,35 -60,53 -75,53 -2,0 -6,-2 -11,-6 -11,0 -20,-5 -25,-15 -6,-10 -11,-17 -15,-22 -5,-5 -8,-9 -9,-14 -1,-5 -4,-11 -9,-17 -5,-7 -7,-13 -7,-20l-4 -42 2 -71c1,-1 3,-6 6,-15 14,-54 23,-84 27,-89 4,-6 6,-14 8,-25 5,-7 11,-18 18,-33 7,-15 11,-27 11,-35 1,-9 6,-16 15,-22 6,-17 15,-31 25,-41l9 -15c13,-18 25,-29 37,-32 17,-34 43,-69 78,-104 35,-35 61,-55 78,-61 3,-8 9,-14 15,-18 7,-4 13,-10 20,-17l17 -15c11,-35 19,-58 24,-70 5,-11 10,-26 13,-44 3,-18 8,-33 14,-45l2 -17c0,-1 3,-6 9,-15 6,-9 12,-29 17,-61 0,-6 2,-13 7,-21 5,-8 7,-13 7,-16l-3 -22zm-308 854l4 0c5,0 9,-1 14,-4l-8 -19c0,-9 5,-20 14,-34 9,-14 19,-31 27,-50 9,-19 18,-31 28,-35l-7 -13c5,-15 8,-26 9,-34l80 -199c12,-28 18,-46 17,-54 -15,11 -27,23 -36,35 0,1 -7,8 -21,20 -14,12 -27,21 -38,27l-43 59c-6,10 -13,16 -18,19 -21,36 -33,60 -38,73 -5,12 -9,20 -13,24l-9 23 -11 18 -2 23c-5,12 -9,20 -12,25 -3,4 -6,8 -7,10l4 41c-11,15 -16,27 -16,37l6 39c2,15 5,22 10,22 3,0 8,-4 14,-11 7,-7 13,-12 19,-14 6,-2 13,-4 19,-7 3,-9 8,-16 15,-22z"/>
     <path class="fil17" d="M8519 7900l19 -15c15,-1 23,-9 23,-23 1,-14 11,-26 30,-36l11 -15c9,-9 34,-21 75,-35 10,-6 17,-11 21,-16 1,-1 2,-2 4,-2l15 4c8,0 18,-2 30,-6 12,-4 24,-6 36,-6l38 -2c2,0 7,2 15,6 7,3 17,5 28,5 13,0 26,6 37,18 11,12 17,23 17,33 0,19 -10,38 -29,57 -19,19 -35,30 -46,32 -10,10 -18,17 -24,19 -5,3 -11,7 -17,13 -6,6 -11,9 -14,9 -2,0 -4,-1 -5,-2 -1,-2 -3,-2 -6,-2 -10,0 -20,12 -32,36l-16 -2c-10,6 -17,14 -20,22 -3,8 -10,12 -19,12 -23,23 -38,34 -45,34 -1,0 -6,-1 -13,-4 -5,6 -7,12 -7,19 0,7 -5,12 -15,13l-12 11 -9 -2 -18 19c-9,0 -19,3 -28,9 -1,7 -3,16 -5,28 -2,11 -4,17 -4,19 0,18 16,26 48,26l44 -6c11,0 22,-3 32,-9 10,-6 21,-9 32,-9 4,0 9,-1 16,-4l9 4c4,-9 12,-17 24,-24 11,-7 20,-11 27,-11l9 -5c2,-7 6,-12 11,-15l7 -6c5,-5 10,-7 14,-7l13 0 4 -2c7,-15 17,-25 30,-28 13,-3 21,-7 25,-13 3,-6 9,-10 18,-11 8,-1 15,-5 21,-12 6,-7 13,-13 21,-19 9,-6 15,-11 18,-13 3,-3 6,-5 8,-5 4,0 6,3 6,8 0,6 1,8 4,8 2,0 4,-1 4,-4 0,-2 -1,-6 -2,-9l0 -7c0,-9 5,-15 15,-18l41 -26c1,-13 5,-20 11,-22 6,-2 10,-5 13,-7 3,-3 6,-4 10,-4 8,0 12,5 12,14l-5 24 5 24c0,4 -3,9 -9,15 -6,6 -10,16 -13,29 -3,13 -7,20 -12,21l-6 0c-11,12 -19,18 -26,20 -6,2 -11,6 -15,11l-31 35c-6,6 -11,11 -15,16 -4,5 -7,7 -10,7l-7 -7c0,-1 -1,-2 -4,-2 -6,0 -10,3 -11,11 -2,7 -5,14 -9,19 -18,9 -30,16 -35,24l-6 2 -16 0c-8,0 -13,6 -16,18 -3,12 -12,19 -26,20 -14,2 -24,6 -30,11 -1,1 -4,2 -8,4 -4,1 -13,6 -25,15l-76 27c-6,3 -10,5 -12,5l-25 4c-4,0 -7,-2 -11,-7 -4,-5 -6,-7 -7,-7l-16 5c-12,4 -24,6 -34,6 -6,0 -13,-2 -20,-7 -7,-4 -13,-7 -17,-9 -18,0 -30,-14 -37,-41l-11 2c-2,0 -11,-21 -24,-64 -4,-5 -10,-8 -17,-11 -8,-2 -12,-8 -12,-18 0,-27 6,-45 18,-55 12,-9 18,-16 19,-21l13 -47c2,-2 6,-8 9,-18l21 -38c2,-4 8,-15 16,-32zm190 -54l-11 6c-2,1 -10,6 -21,16 -12,9 -23,17 -34,23 -11,6 -23,21 -35,45 -12,24 -18,38 -18,41 0,4 2,6 6,6l31 -14c11,-6 22,-12 32,-21 10,-9 24,-19 43,-31l7 -7c1,-2 7,-7 17,-13 10,-6 17,-13 22,-19l9 -4c10,-16 21,-26 31,-30 11,-3 16,-7 16,-11 0,-7 -6,-11 -17,-11 -5,0 -12,3 -22,9l-21 0c-2,0 -9,4 -20,11l-15 4zm548 -394l13 -4 9 -9 2 0 8 4 2 0c15,0 28,-3 39,-9 11,-6 21,-10 28,-12 7,-2 12,-4 14,-5 2,-1 3,-2 5,-2l15 2c5,0 11,-9 19,-26 8,-17 17,-30 28,-37 10,-8 20,-23 31,-45 2,-3 5,-8 8,-14 3,-7 5,-10 7,-10 9,0 16,-6 22,-17 18,-21 33,-32 45,-32 15,0 26,15 32,44l9 34c0,1 -1,5 -4,13 -3,8 -4,16 -4,24 0,8 0,14 -1,16 -1,3 -2,6 -2,10 0,5 5,7 15,7 4,0 10,-2 20,-7l5 -2c6,4 11,6 15,6 1,0 10,-3 26,-9 16,-6 26,-9 31,-10 4,-1 11,-3 22,-7l11 0 7 2c2,0 7,-2 15,-7 7,-5 22,-8 43,-10l13 -6 4 0c20,0 30,9 30,26 0,4 -3,10 -8,19 -6,9 -11,19 -14,31l-42 53c-14,18 -28,27 -41,27 -2,0 -10,-8 -23,-24 0,-1 -1,-2 -3,-2 -6,0 -12,1 -19,4 -6,2 -12,4 -16,4 -2,0 -18,4 -48,13l-22 4c-2,0 -8,1 -17,4l-46 9c-16,8 -28,23 -37,45 0,1 -3,4 -9,8l-41 74c-13,4 -22,11 -26,24l-3 6c-7,1 -13,5 -18,11 -6,6 -11,11 -15,15l-16 24c-7,8 -13,18 -20,28 -7,10 -11,21 -15,32 -3,11 -5,18 -7,19 -2,2 -3,5 -3,10l-3 7c-7,7 -11,15 -11,25l4 14c-9,29 -13,45 -13,46 0,1 1,4 2,10l0 6c0,13 -5,30 -15,50l2 15 -6 41c0,6 2,15 6,30 -2,2 -4,4 -4,6 0,17 9,35 27,56 18,20 27,52 27,95 0,4 -1,9 -3,16 -2,7 -3,15 -4,23 -1,8 -5,16 -14,24 -9,8 -16,12 -22,12 -32,0 -56,-23 -71,-70 -16,-46 -24,-76 -24,-90l2 -35 -5 -18 5 -79 -4 -19 21 -78 0 -28c0,-1 4,-6 13,-15 0,-1 -1,-2 -4,-2 -4,0 -8,4 -15,11 -6,7 -14,14 -23,21l-7 13c-1,-1 -4,-2 -7,-4 -3,1 -13,15 -30,43 -13,2 -23,9 -30,22 -7,13 -17,19 -30,19l-4 2c-2,17 -11,26 -25,26l-3 2c-9,20 -19,30 -28,30 -6,18 -21,31 -45,37 -3,7 -9,13 -16,16 -7,4 -12,7 -15,10 -3,3 -6,5 -8,5 -8,0 -12,-8 -12,-25 0,-5 2,-10 6,-16 4,-6 6,-10 6,-12 0,-1 -3,-5 -9,-11 0,-19 5,-31 15,-35 10,-5 17,-12 22,-21 3,-7 9,-12 18,-15 9,-3 13,-7 13,-12 0,-4 8,-13 24,-25 15,-13 27,-24 34,-33 7,-9 13,-14 18,-14l4 -4c1,-15 7,-23 17,-23l9 -6 2 -7 5 -4 7 0 4 -3c1,-15 8,-27 21,-36 13,-8 37,-32 71,-71 34,-39 54,-64 58,-75 4,-11 12,-25 23,-44 11,-18 17,-36 19,-52 -1,-2 -3,-5 -6,-7l-39 19c0,-2 -6,-5 -18,-8 -9,5 -16,11 -20,16 -4,6 -7,8 -10,8l-13 -2 -40 4c-36,3 -62,11 -81,22l-37 11 -8 0c-5,0 -12,3 -22,9l-21 -2c-19,11 -33,15 -43,15 -1,0 -5,-1 -11,-2l-93 25c-7,2 -23,15 -49,37l-7 2c-6,0 -13,-7 -21,-20 -8,-14 -12,-26 -12,-36 0,-60 51,-95 154,-104l37 -15 2 0 10 4 3 0c4,0 10,-2 17,-7 8,-5 25,-10 53,-17l37 -10 12 2c6,0 13,-2 20,-7 8,-5 19,-8 34,-11 15,-2 26,-4 32,-7l15 -4c2,0 7,-2 15,-6 7,-4 17,-6 29,-6 2,0 6,1 14,4zm723 724l-43 37c-2,-2 -5,-3 -7,-3 -6,0 -14,5 -22,16 -9,11 -15,16 -19,16l-9 -2c-15,11 -26,18 -33,20 -6,2 -15,5 -24,10 -9,5 -18,7 -25,8 -7,1 -14,3 -19,8 -5,5 -16,7 -35,7l-15 -2c-8,4 -13,6 -15,6 -5,0 -10,-3 -15,-8 -5,-5 -11,-8 -18,-9 -6,-1 -13,-5 -19,-13 -6,-8 -13,-13 -19,-16 -6,-3 -11,-7 -14,-13l-13 -11c-11,-7 -20,-20 -30,-40 -10,-19 -15,-34 -15,-45l0 -4 2 -17 -2 -20c2,-2 6,-8 9,-15l0 -29 22 -72c1,-3 -1,-7 -7,-12 -6,9 -12,15 -18,16 -6,2 -10,6 -12,13 -2,6 -6,10 -11,10l-11 -4c-1,1 -4,7 -8,19 -4,11 -11,17 -21,17 -11,0 -16,-4 -16,-13l2 -16 -5 -23c0,-5 5,-14 15,-28 10,-14 19,-22 27,-24 8,-2 15,-8 21,-17 6,-9 18,-21 38,-34 11,-2 20,-10 28,-23 8,-7 19,-12 33,-16 14,-4 24,-10 31,-19 7,-8 28,-21 62,-38 34,-17 59,-26 75,-26 5,0 11,-2 20,-4 8,-3 16,-5 24,-7 7,-2 15,-5 23,-10 8,-5 14,-7 19,-7l26 9c19,6 31,10 35,12 1,1 7,4 19,8 11,4 23,9 35,16 12,6 18,19 18,37 -11,15 -15,23 -15,24 0,2 7,6 21,11 5,9 12,21 22,35l10 32 2 74 -2 7c-7,6 -10,10 -10,12l3 18 -7 25c-2,8 -5,13 -9,15 -4,2 -7,6 -8,9l-6 7c-1,2 -4,7 -8,16 -4,9 -8,15 -13,20 -5,5 -8,11 -9,17 -1,6 -4,11 -9,15 -5,3 -8,6 -10,9 -2,3 -6,6 -11,9zm-282 23l4 21 2 2 15 0 5 2c12,2 21,4 27,4 19,0 33,-5 45,-14 11,-9 20,-14 27,-14 7,0 12,-5 17,-14 5,-9 7,-14 9,-14l13 0 3 -2c0,-14 6,-24 19,-30 12,-6 21,-14 26,-24 5,-10 11,-18 18,-23 7,-5 11,-12 14,-20l7 -11c2,-2 3,-7 3,-14l17 -32c4,-15 5,-27 5,-35 0,-13 -7,-23 -20,-30 -13,-7 -19,-21 -19,-43 0,-14 7,-27 21,-38 14,-12 21,-19 21,-21 0,-4 -2,-6 -5,-6 -2,0 -9,2 -21,7 -4,8 -26,20 -64,33 -12,-6 -19,-9 -21,-9 -3,0 -7,4 -11,11 -4,7 -7,12 -11,15l-12 0c-1,0 -5,4 -12,12 -7,8 -15,12 -25,12l-11 11c1,10 -6,20 -18,30l-10 12c-6,7 -14,16 -24,25l-16 41c-6,16 -10,28 -10,35 -2,4 -6,7 -12,11 -6,4 -10,9 -10,15 0,1 2,4 6,9 4,5 6,9 6,11l-4 12 -3 33 9 29z"/>
    </g>
   </g>
  </g>
 </g>
</svg>
